<svg height="345.6pt" stroke-linejoin="round" viewBox="0 0 460.8 345.6" width="460.8pt" xmlns="http://www.w3.org/2000/svg" xmlns:xlink="http://www.w3.org/1999/xlink"><defs stroke-linejoin="round"><clipPath id="a" stroke-linejoin="round"><path d="m57.6 41.472h357.12v266.112h-357.12z"/></clipPath><path id="b" d="m0 0v3.5" stroke="#000" stroke-linejoin="round" stroke-width=".8"/><path id="c" d="m12.40625 8.296875h16.109375v55.625l-17.53125-3.515625v8.984375l17.4375 3.515625h9.859375v-64.609375h16.109375v-8.296875h-41.984375z" stroke-linejoin="round"/><path id="d" d="m31.78125 66.40625q-7.609375 0-11.453125-7.5-3.828125-7.484375-3.828125-22.53125 0-14.984375 3.828125-22.484375 3.84375-7.5 11.453125-7.5 7.671875 0 11.5 7.5 3.84375 7.5 3.84375 22.484375 0 15.046875-3.84375 22.53125-3.828125 7.5-11.5 7.5zm0 7.8125q12.265625 0 18.734375-9.703125 6.46875-9.6875 6.46875-28.140625 0-18.40625-6.46875-28.109375-6.46875-9.6875-18.734375-9.6875-12.25 0-18.71875 9.6875-6.46875 9.703125-6.46875 28.109375 0 18.453125 6.46875 28.140625 6.46875 9.703125 18.71875 9.703125z" stroke-linejoin="round"/><path id="e" d="m0 0v2" stroke="#000" stroke-linejoin="round" stroke-width=".6"/><path id="f" d="m56.203125 29.59375v-4.390625h-41.3125q.59375-9.28125 5.59375-14.140625 5-4.859375 13.9375-4.859375 5.171875 0 10.03125 1.265625 4.859375 1.265625 9.65625 3.8125v-8.5q-4.84375-2.046875-9.921875-3.125-5.078125-1.078125-10.296875-1.078125-13.09375 0-20.734375 7.609375-7.640625 7.625-7.640625 20.625 0 13.421875 7.25 21.296875 7.25 7.890625 19.5625 7.890625 11.03125 0 17.453125-7.109375 6.421875-7.09375 6.421875-19.296875zm-8.984375 2.640625q-.09375 7.359375-4.125 11.75-4.03125 4.40625-10.671875 4.40625-7.515625 0-12.03125-4.25-4.515625-4.25-5.203125-11.96875z" stroke-linejoin="round"/><path id="g" d="m18.3125 70.21875v-15.53125h18.5v-6.984375h-18.5v-29.6875q0-6.6875 1.828125-8.59375 1.828125-1.90625 7.453125-1.90625h9.21875v-7.515625h-9.21875q-10.40625 0-14.359375 3.875-3.953125 3.890625-3.953125 14.140625v29.6875h-6.59375v6.984375h6.59375v15.53125z" stroke-linejoin="round"/><path id="h" d="m8.5 21.578125v33.109375h8.984375v-32.765625q0-7.765625 3.015625-11.65625 3.03125-3.875 9.09375-3.875 7.265625 0 11.484375 4.640625 4.234375 4.640625 4.234375 12.65625v31h8.984375v-54.6875h-8.984375v8.40625q-3.265625-4.984375-7.59375-7.40625-4.3125-2.421875-10.03125-2.421875-9.421875 0-14.3125 5.859375-4.875 5.859375-4.875 17.140625z" stroke-linejoin="round"/><path id="i" d="m41.109375 46.296875q-1.515625.875-3.296875 1.28125-1.78125.421875-3.921875.421875-7.625 0-11.703125-4.953125-4.078125-4.953125-4.078125-14.234375v-28.8125h-9.03125v54.6875h9.03125v-8.5q2.84375 4.984375 7.375 7.390625 4.546875 2.421875 11.046875 2.421875.921875 0 2.046875-.125 1.125-.109375 2.484375-.359375z" stroke-linejoin="round"/><path id="j" d="m54.890625 33.015625v-33.015625h-8.984375v32.71875q0 7.765625-3.03125 11.609375-3.03125 3.859375-9.078125 3.859375-7.28125 0-11.484375-4.640625-4.203125-4.625-4.203125-12.640625v-30.90625h-9.03125v54.6875h9.03125v-8.5q3.234375 4.9375 7.59375 7.375 4.375 2.4375 10.09375 2.4375 9.421875 0 14.25-5.828125 4.84375-5.828125 4.84375-17.15625z" stroke-linejoin="round"/><path id="k" d="m18.109375 8.203125v-29h-9.03125v75.484375h9.03125v-8.296875q2.84375 4.875 7.15625 7.234375 4.328125 2.375 10.328125 2.375 9.96875 0 16.1875-7.90625 6.234375-7.90625 6.234375-20.796875 0-12.890625-6.234375-20.8125-6.21875-7.90625-16.1875-7.90625-6 0-10.328125 2.375-4.3125 2.375-7.15625 7.25zm30.578125 19.09375q0 9.90625-4.078125 15.546875-4.078125 5.640625-11.203125 5.640625-7.140625 0-11.21875-5.640625-4.078125-5.640625-4.078125-15.546875 0-9.90625 4.078125-15.546875 4.078125-5.640625 11.21875-5.640625 7.125 0 11.203125 5.640625 4.078125 5.640625 4.078125 15.546875z" stroke-linejoin="round"/><path id="l" d="m9.421875 54.6875h8.984375v-54.6875h-8.984375zm0 21.296875h8.984375v-11.390625h-8.984375z" stroke-linejoin="round"/><path id="m" d="m30.609375 48.390625q-7.21875 0-11.421875-5.640625-4.203125-5.640625-4.203125-15.453125 0-9.8125 4.171875-15.453125 4.1875-5.640625 11.453125-5.640625 7.1875 0 11.375 5.65625 4.203125 5.671875 4.203125 15.4375 0 9.71875-4.203125 15.40625-4.1875 5.6875-11.375 5.6875zm0 7.609375q11.71875 0 18.40625-7.625 6.703125-7.609375 6.703125-21.078125 0-13.421875-6.703125-21.078125-6.6875-7.640625-18.40625-7.640625-11.765625 0-18.4375 7.640625-6.65625 7.65625-6.65625 21.078125 0 13.46875 6.65625 21.078125 6.671875 7.625 18.4375 7.625z" stroke-linejoin="round"/><path id="n" d="m45.40625 46.390625v29.59375h8.984375v-75.984375h-8.984375v8.203125q-2.828125-4.875-7.15625-7.25-4.3125-2.375-10.375-2.375-9.90625 0-16.140625 7.90625-6.21875 7.921875-6.21875 20.8125 0 12.890625 6.21875 20.796875 6.234375 7.90625 16.140625 7.90625 6.0625 0 10.375-2.375 4.328125-2.359375 7.15625-7.234375zm-30.609375-19.09375q0-9.90625 4.078125-15.546875 4.078125-5.640625 11.203125-5.640625 7.125 0 11.21875 5.640625 4.109375 5.640625 4.109375 15.546875 0 9.90625-4.109375 15.546875-4.09375 5.640625-11.21875 5.640625-7.125 0-11.203125-5.640625-4.078125-5.640625-4.078125-15.546875z" stroke-linejoin="round"/><path id="o" d="m11.71875 12.40625h10.296875v-8.40625l-8-15.625h-6.296875l4 15.625z" stroke-linejoin="round"/><path id="p" d="m31 75.875q-6.53125-11.21875-9.71875-22.21875-3.171875-10.984375-3.171875-22.265625 0-11.265625 3.203125-22.328125 3.203125-11.0625 9.6875-22.25h-7.8125q-7.3125 11.484375-10.953125 22.5625-3.640625 11.078125-3.640625 22.015625 0 10.890625 3.609375 21.921875 3.625 11.046875 10.984375 22.5625z" stroke-linejoin="round"/><path id="q" d="m32.171875-5.078125q-3.796875-9.765625-7.421875-12.734375-3.609375-2.984375-9.65625-2.984375h-7.1875v7.515625h5.28125q3.703125 0 5.75 1.765625 2.0625 1.75 4.546875 8.296875l1.609375 4.09375-22.109375 53.8125h9.515625l17.09375-42.765625 17.09375 42.765625h9.515625z" stroke-linejoin="round"/><path id="r" d="m34.28125 27.484375q-10.890625 0-15.09375-2.484375-4.203125-2.484375-4.203125-8.5 0-4.78125 3.15625-7.59375 3.15625-2.796875 8.5625-2.796875 7.484375 0 12 5.296875 4.515625 5.296875 4.515625 14.078125v2zm17.921875 3.71875v-31.203125h-8.984375v8.296875q-3.078125-4.96875-7.671875-7.34375-4.59375-2.375-11.234375-2.375-8.390625 0-13.359375 4.71875-4.953125 4.71875-4.953125 12.625 0 9.21875 6.171875 13.90625 6.1875 4.6875 18.4375 4.6875h12.609375v.890625q0 6.203125-4.078125 9.59375-4.078125 3.390625-11.453125 3.390625-4.6875 0-9.140625-1.125-4.4375-1.125-8.53125-3.375v8.3125q4.921875 1.90625 9.5625 2.84375 4.640625.953125 9.03125.953125 11.875 0 17.734375-6.15625 5.859375-6.140625 5.859375-18.640625z" stroke-linejoin="round"/><path id="s" d="m44.28125 53.078125v-8.5q-3.796875 1.953125-7.90625 2.921875-4.09375.984375-8.5.984375-6.6875 0-10.03125-2.046875-3.34375-2.046875-3.34375-6.15625 0-3.125 2.390625-4.90625 2.390625-1.78125 9.625-3.390625l3.078125-.6875q9.5625-2.046875 13.59375-5.78125 4.03125-3.734375 4.03125-10.421875 0-7.625-6.03125-12.078125-6.03125-4.4375-16.578125-4.4375-4.390625 0-9.15625.859375-4.765625.859375-10.03125 2.5625v9.28125q4.984375-2.59375 9.8125-3.890625 4.828125-1.28125 9.578125-1.28125 6.34375 0 9.75 2.171875 3.421875 2.171875 3.421875 6.125 0 3.65625-2.46875 5.609375-2.453125 1.953125-10.8125 3.765625l-3.125.734375q-8.34375 1.75-12.0625 5.390625-3.703125 3.640625-3.703125 9.984375 0 7.71875 5.46875 11.90625 5.46875 4.203125 15.53125 4.203125 4.96875 0 9.359375-.734375 4.40625-.71875 8.109375-2.1875z" stroke-linejoin="round"/><path id="t" d="m8.015625 75.875h7.8125q7.3125-11.515625 10.953125-22.5625 3.640625-11.03125 3.640625-21.921875 0-10.9375-3.640625-22.015625-3.640625-11.078125-10.953125-22.5625h-7.8125q6.484375 11.1875 9.6875 22.25 3.203125 11.0625 3.203125 22.328125 0 11.28125-3.203125 22.265625-3.203125 11-9.6875 22.21875z" stroke-linejoin="round"/><path id="u" d="m0 0h-3.5" stroke="#000" stroke-linejoin="round" stroke-width=".8"/><path id="v" d="m10.796875 72.90625h38.71875v-8.3125h-29.6875v-17.859375q2.140625.734375 4.28125 1.09375 2.15625.359375 4.3125.359375 12.203125 0 19.328125-6.6875 7.140625-6.6875 7.140625-18.109375 0-11.765625-7.328125-18.296875-7.328125-6.515625-20.65625-6.515625-4.59375 0-9.359375.78125-4.75.78125-9.828125 2.34375v9.921875q4.390625-2.390625 9.078125-3.5625 4.6875-1.171875 9.90625-1.171875 8.453125 0 13.375 4.4375 4.9375 4.4375 4.9375 12.0625 0 7.609375-4.9375 12.046875-4.921875 4.453125-13.375 4.453125-3.953125 0-7.890625-.875-3.921875-.875-8.015625-2.734375z" stroke-linejoin="round"/><path id="w" d="m19.1875 8.296875h34.421875v-8.296875h-46.28125v8.296875q5.609375 5.8125 15.296875 15.59375 9.703125 9.796875 12.1875 12.640625 4.734375 5.3125 6.609375 9 1.890625 3.6875 1.890625 7.25 0 5.8125-4.078125 9.46875-4.078125 3.671875-10.625 3.671875-4.640625 0-9.796875-1.609375-5.140625-1.609375-11-4.890625v9.96875q5.953125 2.390625 11.125 3.609375 5.1875 1.21875 9.484375 1.21875 11.328125 0 18.0625-5.671875 6.734375-5.65625 6.734375-15.125 0-4.5-1.6875-8.53125-1.671875-4.015625-6.125-9.484375-1.21875-1.421875-7.765625-8.1875-6.53125-6.765625-18.453125-18.921875z" stroke-linejoin="round"/><path id="x" d="m40.578125 39.3125q7.078125-1.515625 11.046875-6.3125 3.984375-4.78125 3.984375-11.8125 0-10.78125-7.421875-16.703125-7.421875-5.90625-21.09375-5.90625-4.578125 0-9.4375.90625-4.859375.90625-10.03125 2.71875v9.515625q4.09375-2.390625 8.96875-3.609375 4.890625-1.21875 10.21875-1.21875 9.265625 0 14.125 3.65625 4.859375 3.65625 4.859375 10.640625 0 6.453125-4.515625 10.078125-4.515625 3.640625-12.5625 3.640625h-8.5v8.109375h8.890625q7.265625 0 11.125 2.90625 3.859375 2.90625 3.859375 8.375 0 5.609375-3.984375 8.609375-3.96875 3.015625-11.390625 3.015625-4.0625 0-8.703125-.890625-4.640625-.875-10.203125-2.71875v8.78125q5.625 1.5625 10.53125 2.34375 4.90625.78125 9.25.78125 11.234375 0 17.765625-5.109375 6.546875-5.09375 6.546875-13.78125 0-6.0625-3.46875-10.234375-3.46875-4.171875-9.859375-5.78125z" stroke-linejoin="round"/><path id="y" d="m37.796875 64.3125-24.90625-38.921875h24.90625zm-2.59375 8.59375h12.40625v-47.515625h10.40625v-8.203125h-10.40625v-17.1875h-9.8125v17.1875h-32.90625v9.515625z" stroke-linejoin="round"/><path id="z" d="m48.6875 27.296875q0 9.90625-4.078125 15.546875-4.078125 5.640625-11.203125 5.640625-7.140625 0-11.21875-5.640625-4.078125-5.640625-4.078125-15.546875 0-9.90625 4.078125-15.546875 4.078125-5.640625 11.21875-5.640625 7.125 0 11.203125 5.640625 4.078125 5.640625 4.078125 15.546875zm-30.578125 19.09375q2.84375 4.875 7.15625 7.234375 4.328125 2.375 10.328125 2.375 9.96875 0 16.1875-7.90625 6.234375-7.90625 6.234375-20.796875 0-12.890625-6.234375-20.8125-6.21875-7.90625-16.1875-7.90625-6 0-10.328125 2.375-4.3125 2.375-7.15625 7.25v-8.203125h-9.03125v75.984375h9.03125z" stroke-linejoin="round"/><path id="A" d="m9.421875 75.984375h8.984375v-75.984375h-8.984375z" stroke-linejoin="round"/><path id="B" d="m45.40625 27.984375q0 9.765625-4.03125 15.125-4.015625 5.375-11.296875 5.375-7.21875 0-11.25-5.375-4.03125-5.359375-4.03125-15.125 0-9.71875 4.03125-15.09375 4.03125-5.375 11.25-5.375 7.28125 0 11.296875 5.375 4.03125 5.375 4.03125 15.09375zm8.984375-21.203125q0-13.953125-6.203125-20.765625-6.1875-6.8125-18.984375-6.8125-4.734375 0-8.9375.703125-4.203125.703125-8.15625 2.171875v8.734375q3.953125-2.140625 7.8125-3.15625 3.859375-1.03125 7.859375-1.03125 8.84375 0 13.234375 4.609375 4.390625 4.609375 4.390625 13.9375v4.453125q-2.78125-4.84375-7.125-7.234375-4.34375-2.390625-10.40625-2.390625-10.046875 0-16.203125 7.65625-6.15625 7.671875-6.15625 20.328125 0 12.6875 6.15625 20.34375 6.15625 7.671875 16.203125 7.671875 6.0625 0 10.40625-2.390625 4.34375-2.390625 7.125-7.21875v8.296875h8.984375z" stroke-linejoin="round"/><path id="C" d="m52 44.1875q3.375 6.0625 8.0625 8.9375 4.6875 2.875 11.03125 2.875 8.546875 0 13.1875-5.984375 4.640625-5.96875 4.640625-17v-33.015625h-9.03125v32.71875q0 7.859375-2.796875 11.65625-2.78125 3.8125-8.484375 3.8125-6.984375 0-11.046875-4.640625-4.046875-4.625-4.046875-12.640625v-30.90625h-9.03125v32.71875q0 7.90625-2.78125 11.6875-2.78125 3.78125-8.59375 3.78125-6.890625 0-10.953125-4.65625-4.046875-4.65625-4.046875-12.625v-30.90625h-9.03125v54.6875h9.03125v-8.5q3.078125 5.03125 7.375 7.421875 4.296875 2.390625 10.203125 2.390625 5.96875 0 10.140625-3.03125 4.171875-3.015625 6.171875-8.78125z" stroke-linejoin="round"/><path id="D" d="m54.890625 33.015625v-33.015625h-8.984375v32.71875q0 7.765625-3.03125 11.609375-3.03125 3.859375-9.078125 3.859375-7.28125 0-11.484375-4.640625-4.203125-4.625-4.203125-12.640625v-30.90625h-9.03125v75.984375h9.03125v-29.796875q3.234375 4.9375 7.59375 7.375 4.375 2.4375 10.09375 2.4375 9.421875 0 14.25-5.828125 4.84375-5.828125 4.84375-17.15625z" stroke-linejoin="round"/></defs><g stroke-linejoin="round"><path d="m0 345.6h460.8v-345.6h-460.8z" fill="#fff"/><g><path d="m57.6 307.584h357.12v-266.112h-357.12z" fill="#fff" stroke-linejoin="round"/><g stroke-linejoin="round"><g><use stroke="#000" stroke-width=".8" x="73.832727" xlink:href="#b" y="307.584"/><g transform="matrix(.1 0 0 -.1 65.032727 322.182437)"><use transform="translate(0 .765625)" xlink:href="#c"/><use transform="translate(63.623047 .765625)" xlink:href="#d"/><use transform="matrix(.7 0 0 .7 128.203125 39.046875)" xlink:href="#d"/></g></g><g><use stroke="#000" stroke-width=".8" x="265.019607" xlink:href="#b" y="307.584"/><g transform="matrix(.1 0 0 -.1 256.219607 322.182437)"><use transform="translate(0 .684375)" xlink:href="#c"/><use transform="translate(63.623047 .684375)" xlink:href="#d"/><use transform="matrix(.7 0 0 .7 128.203125 38.965625)" xlink:href="#c"/></g></g><g stroke="#000" stroke-width=".6"><use x="65.084495" xlink:href="#e" y="307.584"/><use x="131.385713" xlink:href="#e" y="307.584"/><use x="165.052051" xlink:href="#e" y="307.584"/><use x="188.938699" xlink:href="#e" y="307.584"/><use x="207.466622" xlink:href="#e" y="307.584"/><use x="222.605037" xlink:href="#e" y="307.584"/><use x="235.404385" xlink:href="#e" y="307.584"/><use x="246.491684" xlink:href="#e" y="307.584"/><use x="256.271376" xlink:href="#e" y="307.584"/><use x="322.572593" xlink:href="#e" y="307.584"/><use x="356.238932" xlink:href="#e" y="307.584"/><use x="380.125579" xlink:href="#e" y="307.584"/><use x="398.653502" xlink:href="#e" y="307.584"/><use x="413.791917" xlink:href="#e" y="307.584"/></g><g transform="matrix(.1 0 0 -.1 176.567813 335.860562)"><path d="m44.390625 34.1875q3.171875-1.078125 6.171875-4.59375 3-3.515625 6.03125-9.671875l10.015625-19.921875h-10.609375l-9.3125 18.703125q-3.625 7.328125-7.015625 9.71875-3.390625 2.390625-9.25 2.390625h-10.75v-30.8125h-9.859375v72.90625h22.265625q12.5 0 18.65625-5.234375 6.15625-5.21875 6.15625-15.765625 0-6.890625-3.203125-11.4375-3.203125-4.53125-9.296875-6.28125zm-24.71875 30.609375v-25.875h12.40625q7.125 0 10.765625 3.296875 3.640625 3.296875 3.640625 9.6875 0 6.390625-3.640625 9.640625-3.640625 3.25-10.765625 3.25z"/><use x="64.982422" xlink:href="#f"/><use x="126.505859" xlink:href="#g"/><use x="165.714844" xlink:href="#h"/><use x="229.09375" xlink:href="#i"/><use x="268.457031" xlink:href="#j"/><use x="363.623047" xlink:href="#k"/><use x="427.099609" xlink:href="#f"/><use x="488.623047" xlink:href="#i"/><use x="529.736328" xlink:href="#l"/><use x="557.519531" xlink:href="#m"/><use x="618.701172" xlink:href="#n"/><use x="682.177734" xlink:href="#o"/><path d="m-.296875 72.90625h61.671875v-8.3125h-25.875v-64.59375h-9.90625v64.59375h-25.890625z" transform="translate(745.751953)"/><use x="838.623047" xlink:href="#p"/><use x="877.636719" xlink:href="#q"/><use x="936.816406" xlink:href="#f"/><use x="998.339844" xlink:href="#r"/><use x="1059.619141" xlink:href="#i"/><use x="1100.732422" xlink:href="#s"/><use x="1152.832031" xlink:href="#t"/></g></g><g stroke-linejoin="round"><g><use stroke="#000" stroke-width=".8" x="57.6" xlink:href="#u" y="295.821046"/><use transform="matrix(.1 0 0 -.1 44.2375 299.620265)" xlink:href="#d"/></g><g><use stroke="#000" stroke-width=".8" x="57.6" xlink:href="#u" y="265.036812"/><use transform="matrix(.1 0 0 -.1 44.2375 268.836031)" xlink:href="#v"/></g><g><use stroke="#000" stroke-width=".8" x="57.6" xlink:href="#u" y="234.252578"/><g transform="matrix(.1 0 0 -.1 37.875 238.051796)"><use xlink:href="#c"/><use x="63.623047" xlink:href="#d"/></g></g><g><use stroke="#000" stroke-width=".8" x="57.6" xlink:href="#u" y="203.468343"/><g transform="matrix(.1 0 0 -.1 37.875 207.267562)"><use xlink:href="#c"/><use x="63.623047" xlink:href="#v"/></g></g><g><use stroke="#000" stroke-width=".8" x="57.6" xlink:href="#u" y="172.684109"/><g transform="matrix(.1 0 0 -.1 37.875 176.483328)"><use xlink:href="#w"/><use x="63.623047" xlink:href="#d"/></g></g><g><use stroke="#000" stroke-width=".8" x="57.6" xlink:href="#u" y="141.899875"/><g transform="matrix(.1 0 0 -.1 37.875 145.699094)"><use xlink:href="#w"/><use x="63.623047" xlink:href="#v"/></g></g><g><use stroke="#000" stroke-width=".8" x="57.6" xlink:href="#u" y="111.115641"/><g transform="matrix(.1 0 0 -.1 37.875 114.91486)"><use xlink:href="#x"/><use x="63.623047" xlink:href="#d"/></g></g><g><use stroke="#000" stroke-width=".8" x="57.6" xlink:href="#u" y="80.331407"/><g transform="matrix(.1 0 0 -.1 37.875 84.130626)"><use xlink:href="#x"/><use x="63.623047" xlink:href="#v"/></g></g><g><use stroke="#000" stroke-width=".8" x="57.6" xlink:href="#u" y="49.547173"/><g transform="matrix(.1 0 0 -.1 37.875 53.346392)"><use xlink:href="#y"/><use x="63.623047" xlink:href="#d"/></g></g><g transform="matrix(0 -.1 -.1 0 31.795312 291.718625)"><path d="m19.671875 64.796875v-27.390625h12.40625q6.890625 0 10.640625 3.5625 3.765625 3.5625 3.765625 10.15625 0 6.546875-3.765625 10.109375-3.75 3.5625-10.640625 3.5625zm-9.859375 8.109375h22.265625q12.265625 0 18.53125-5.546875 6.28125-5.546875 6.28125-16.234375 0-10.796875-6.28125-16.3125-6.265625-5.515625-18.53125-5.515625h-12.40625v-29.296875h-9.859375z"/><use x="58.552734" xlink:href="#i"/><use x="97.416016" xlink:href="#m"/><use x="158.597656" xlink:href="#z"/><use x="222.074219" xlink:href="#r"/><use x="283.353516" xlink:href="#z"/><use x="346.830078" xlink:href="#l"/><use x="374.613281" xlink:href="#A"/><use x="402.396484" xlink:href="#l"/><use x="430.179688" xlink:href="#g"/><use x="469.388672" xlink:href="#q"/><use x="560.355469" xlink:href="#m"/><path d="m37.109375 75.984375v-7.484375h-8.59375q-4.828125 0-6.71875-1.953125-1.875-1.953125-1.875-7.03125v-4.828125h14.796875v-6.984375h-14.796875v-47.703125h-9.03125v47.703125h-8.59375v6.984375h8.59375v3.8125q0 9.125 4.25 13.296875 4.25 4.1875 13.46875 4.1875z" transform="translate(621.537109)"/><use x="688.529297" xlink:href="#f"/><use x="750.052734" xlink:href="#j"/><path d="m48.78125 52.59375v-8.40625q-3.8125 2.109375-7.640625 3.15625-3.828125 1.046875-7.734375 1.046875-8.75 0-13.59375-5.546875-4.828125-5.53125-4.828125-15.546875 0-10.015625 4.828125-15.5625 4.84375-5.53125 13.59375-5.53125 3.90625 0 7.734375 1.046875 3.828125 1.046875 7.640625 3.15625v-8.3125q-3.765625-1.75-7.796875-2.625-4.015625-.890625-8.5625-.890625-12.359375 0-19.640625 7.765625-7.265625 7.765625-7.265625 20.953125 0 13.375 7.34375 21.03125 7.359375 7.671875 20.15625 7.671875 4.140625 0 8.09375-.859375 3.953125-.84375 7.671875-2.546875z" transform="translate(813.431641)"/><use x="868.412109" xlink:href="#m"/><use x="929.59375" xlink:href="#h"/><use x="992.972656" xlink:href="#j"/><use x="1056.351562" xlink:href="#g"/><use x="1095.560547" xlink:href="#f"/><use x="1157.083984" xlink:href="#i"/><use x="1198.197266" xlink:href="#l"/><use x="1225.980469" xlink:href="#j"/><use x="1289.359375" xlink:href="#B"/><use x="1384.623047" xlink:href="#n"/><use x="1448.099609" xlink:href="#f"/><use x="1509.623047" xlink:href="#s"/><use x="1561.722656" xlink:href="#l"/><use x="1589.505859" xlink:href="#B"/><use x="1652.982422" xlink:href="#j"/><path d="m4.203125 54.6875h8.984375l11.234375-42.671875 11.171875 42.671875h10.59375l11.234375-42.671875 11.1875 42.671875h8.984375l-14.3125-54.6875h-10.59375l-11.765625 44.828125-11.8125-44.828125h-10.609375z" transform="translate(1748.148438)"/><use x="1829.935547" xlink:href="#r"/><path d="m2.984375 54.6875h9.515625l17.09375-45.890625 17.09375 45.890625h9.515625l-20.515625-54.6875h-12.203125z" transform="translate(1891.214844)"/><use x="1950.394531" xlink:href="#f"/><use x="2011.917969" xlink:href="#o"/><use x="2075.492188" xlink:href="#k"/><use x="2170.755859" xlink:href="#p"/><path d="m72.703125 32.078125q-4.25 0-6.671875-3.609375-2.40625-3.609375-2.40625-10.0625 0-6.34375 2.40625-9.984375 2.421875-3.640625 6.671875-3.640625 4.15625 0 6.5625 3.640625 2.421875 3.640625 2.421875 9.984375 0 6.40625-2.421875 10.03125-2.40625 3.640625-6.5625 3.640625zm0 6.203125q7.71875 0 12.25-5.375 4.546875-5.359375 4.546875-14.5 0-9.125-4.5625-14.484375-4.5625-5.34375-12.234375-5.34375-7.8125 0-12.359375 5.34375-4.53125 5.359375-4.53125 14.484375 0 9.1875 4.5625 14.53125 4.5625 5.34375 12.328125 5.34375zm-50.390625 29.734375q-4.203125 0-6.625-3.640625-2.40625-3.625-2.40625-9.984375 0-6.4375 2.390625-10.0625 2.390625-3.609375 6.640625-3.609375 4.25 0 6.65625 3.609375 2.421875 3.625 2.421875 10.0625 0 6.296875-2.4375 9.953125-2.4375 3.671875-6.640625 3.671875zm44.09375 6.203125h7.8125l-45.609375-75.640625h-7.8125zm-44.09375 0q7.71875 0 12.296875-5.34375 4.59375-5.34375 4.59375-14.484375 0-9.21875-4.5625-14.546875-4.5625-5.328125-12.328125-5.328125-7.765625 0-12.28125 5.34375-4.515625 5.359375-4.515625 14.53125 0 9.09375 4.53125 14.453125 4.546875 5.375 12.265625 5.375z" transform="translate(2209.769531)"/><use x="2304.789062" xlink:href="#t"/></g></g><g fill="none" stroke-linecap="square"><path clip-path="url(#a)" d="m73.832727 279.41997 7.913739 1.472776 13.870735 2.272879 11.881865 1.672242 15.138415 1.816828 12.799348 1.301076 14.476807 1.251658 15.138415 1.097315 17.413391 1.039821 19.863578.949709 21.648468.807632 25.570912.719564 29.914795.604228 35.733617.48763 45.093236.380214 38.197225.194458" stroke="#1f77b4" stroke-linejoin="round" stroke-width="1.5"/><path clip-path="url(#a)" d="m73.832727 246.782467 7.913739 4.291774 7.224677 3.601299 6.646058 3.064989 6.15329 2.640144 5.728575 2.297885 10.392472 3.804606 9.235221 3.02118 8.31007 2.457115 7.553515 2.037515 10.179843 2.477927 9.066971 1.972603 10.728632 2.079257 11.713954 1.990236 12.172693 1.796853 12.258425 1.566324 13.494175 1.480539 13.977118 1.302798 14.943277 1.172812 16.750726 1.088641 18.527923.975694 20.795994.86599 23.637677.754811 27.455488.646025 32.493687.534375 7.300346.093953" stroke="#ff7f0e" stroke-linejoin="round" stroke-width="1.5"/><path clip-path="url(#a)" d="m73.832727 201.128502 7.913739 7.969954 7.224677 6.734685 6.646058 5.765507 6.15329 4.991227 5.728575 4.362932 5.358724 3.84613 5.033748 3.415941 4.745943 3.054049 8.748232 5.230288 7.913738 4.315568 7.224677 3.621415 6.646059 3.082218 6.153289 2.655064 8.451161 3.357591 7.669886 2.779663 7.020919 2.339101 8.523519 2.597191 7.729429 2.144052 8.748232 2.205724 9.40984 2.134715 9.779691 1.983411 9.926002 1.793505 10.940989 1.748828 11.470817 1.606615 12.41583 1.510089 13.455726 1.404067 14.372135 1.271301 15.95916 1.178728 17.155472 1.040153 19.335843.943056 21.739482.82964 24.726204.714808.33346.008264" stroke="#2ca02c" stroke-linejoin="round" stroke-width="1.5"/><path clip-path="url(#a)" d="m73.832727 159.632076 7.913739 11.02241 7.224677 9.378649 6.646058 8.075702 6.15329 7.025788 5.728575 6.16757 5.358724 5.457185 5.033748 4.862597 4.745943 4.359989 4.489278 3.931351 4.258954 3.562872 7.913738 6.20953 7.224677 5.228785 6.646059 4.463195 6.153289 3.854163 5.728575 3.361755 7.913739 4.307639 7.224677 3.614712 6.646058 3.076476 8.10706 3.453675 7.385435 2.881491 8.394153 2.993487 7.62291 2.479858 8.31007 2.466571 8.748232 2.352804 8.985126 2.180122 9.066971 1.980285 9.885666 1.932709 10.342618 1.795819 11.180751 1.710514 11.5762 1.548469 12.636701 1.464861 13.494175 1.339779 14.791729 1.241508 16.059716 1.121835 17.722345 1.012211 19.858657.906376 7.482233.289349" stroke="#d62728" stroke-linejoin="round" stroke-width="1.5"/><path clip-path="url(#a)" d="m73.832727 121.440793 7.913739 13.563759 7.224677 11.621051 6.646058 10.064791 6.15329 8.799624 5.728575 7.757667 5.358724 6.889606 5.033748 6.158959 4.745943 5.53829 4.489278 5.00666 4.258954 4.547864 7.913738 7.949884 7.224677 6.717446 6.646059 5.750549 6.153289 4.978129 5.728575 4.351371 5.358725 3.835853 7.440623 4.971076 6.828345 4.220697 6.309217 3.628203 5.863476 3.152225 7.224677 3.611359 6.646059 3.073606 7.62291 3.253143 6.981539 2.742569 7.669887 2.771769 8.135451 2.685688 8.41544 2.525807 8.547915 2.325989 8.567532 2.110891 9.235221 2.051383 9.617679 1.91348 10.354305 1.832473 11.230334 1.750664 11.648114 1.586571 12.488252 1.474806 13.438054 1.360962 14.553123 1.248177 15.979583 1.142883 17.597714 1.030376 5.681047.288954" stroke="#9467bd" stroke-linejoin="round" stroke-width="1.5"/><path clip-path="url(#a)" d="m73.832727 53.568 7.913739 17.365854 7.224677 15.086867 6.646058 13.219839 6.15329 11.673467 5.728575 10.379689 5.358724 9.287184 5.033748 8.356804 4.745943 7.558336 4.489278 6.868208 4.258954 6.267828 4.051116 5.742396 7.553515 10.151058 6.923292 8.690817 6.390184 7.523443 5.933338 6.57579 5.537479 5.796128 5.191153 5.147064 4.885609 4.601036 6.828345 6.053509 6.309217 5.221923 5.863476 4.550479 5.476583 4.000585 6.781842 4.638012 6.269498 3.994172 5.829158 3.475613 6.754243 3.75751 6.245907 3.232734 6.923292 3.329339 7.408987 3.287265 6.801694 2.78473 7.146896 2.703115 7.36722 2.564824 8.198093 2.6104 8.107059 2.349839 8.554911 2.251758 9.32685 2.212805 9.31712 1.982703 10.036993 1.907267 10.778441 1.812641 11.132413 1.645546 12.029064 1.550898 12.877349 1.432738 13.960645 1.324709 14.310578 1.147743" stroke="#8c564b" stroke-linejoin="round" stroke-width="1.5"/><path d="m57.6 307.584v-266.112" stroke="#000" stroke-linejoin="miter" stroke-width=".8"/><path d="m414.72 307.584v-266.112" stroke="#000" stroke-linejoin="miter" stroke-width=".8"/><path d="m57.6 307.584h357.12" stroke="#000" stroke-linejoin="miter" stroke-width=".8"/><path d="m57.6 41.472h357.12" stroke="#000" stroke-linejoin="miter" stroke-width=".8"/></g><g stroke-linejoin="round"><path d="m303.177813 137.54075h104.542187q2 0 2-2v-87.06875q0-2-2-2h-104.542187q-2 0-2 2v87.06875q0 2 2 2z" fill="#fff" opacity=".8" stroke="#ccc" stroke-linejoin="miter"/><g stroke-linejoin="round"><path d="m305.177813 54.570438h20" fill="none" stroke="#1f77b4" stroke-linecap="square" stroke-width="1.5"/><g transform="matrix(.1 0 0 -.1 333.177813 58.070438)"><use xlink:href="#c"/><use x="63.623047" xlink:href="#d"/><use x="159.033203" xlink:href="#n"/><use x="222.509766" xlink:href="#r"/><use x="283.789062" xlink:href="#q"/><use x="374.755859" xlink:href="#k"/><use x="438.232422" xlink:href="#l"/><use x="466.015625" xlink:href="#A"/><use x="493.798828" xlink:href="#l"/><use x="521.582031" xlink:href="#j"/><use x="584.960938" xlink:href="#B"/></g><path d="m305.177813 69.248563h20" fill="none" stroke="#ff7f0e" stroke-linecap="square" stroke-width="1.5"/><g transform="matrix(.1 0 0 -.1 333.177813 72.748563)"><use xlink:href="#c"/><use x="95.410156" xlink:href="#C"/><use x="192.822266" xlink:href="#m"/><use x="254.003906" xlink:href="#j"/><use x="317.382812" xlink:href="#g"/><use x="356.591797" xlink:href="#D"/><use x="451.757812" xlink:href="#k"/><use x="515.234375" xlink:href="#l"/><use x="543.017578" xlink:href="#A"/><use x="570.800781" xlink:href="#l"/><use x="598.583984" xlink:href="#j"/><use x="661.962891" xlink:href="#B"/></g><path d="m305.177813 83.926688h20" fill="none" stroke="#2ca02c" stroke-linecap="square" stroke-width="1.5"/><g transform="matrix(.1 0 0 -.1 333.177813 87.426688)"><use xlink:href="#w"/><use x="95.410156" xlink:href="#C"/><use x="192.822266" xlink:href="#m"/><use x="254.003906" xlink:href="#j"/><use x="317.382812" xlink:href="#g"/><use x="356.591797" xlink:href="#D"/><use x="451.757812" xlink:href="#k"/><use x="515.234375" xlink:href="#l"/><use x="543.017578" xlink:href="#A"/><use x="570.800781" xlink:href="#l"/><use x="598.583984" xlink:href="#j"/><use x="661.962891" xlink:href="#B"/></g><path d="m305.177813 98.604813h20" fill="none" stroke="#d62728" stroke-linecap="square" stroke-width="1.5"/><g transform="matrix(.1 0 0 -.1 333.177813 102.104813)"><use xlink:href="#x"/><use x="95.410156" xlink:href="#C"/><use x="192.822266" xlink:href="#m"/><use x="254.003906" xlink:href="#j"/><use x="317.382812" xlink:href="#g"/><use x="356.591797" xlink:href="#D"/><use x="451.757812" xlink:href="#k"/><use x="515.234375" xlink:href="#l"/><use x="543.017578" xlink:href="#A"/><use x="570.800781" xlink:href="#l"/><use x="598.583984" xlink:href="#j"/><use x="661.962891" xlink:href="#B"/></g><path d="m305.177813 113.282938h20" fill="none" stroke="#9467bd" stroke-linecap="square" stroke-width="1.5"/><g transform="matrix(.1 0 0 -.1 333.177813 116.782938)"><use xlink:href="#y"/><use x="95.410156" xlink:href="#C"/><use x="192.822266" xlink:href="#m"/><use x="254.003906" xlink:href="#j"/><use x="317.382812" xlink:href="#g"/><use x="356.591797" xlink:href="#D"/><use x="451.757812" xlink:href="#k"/><use x="515.234375" xlink:href="#l"/><use x="543.017578" xlink:href="#A"/><use x="570.800781" xlink:href="#l"/><use x="598.583984" xlink:href="#j"/><use x="661.962891" xlink:href="#B"/></g><path d="m305.177813 127.961063h20" fill="none" stroke="#8c564b" stroke-linecap="square" stroke-width="1.5"/><g transform="matrix(.1 0 0 -.1 333.177813 131.461063)"><path d="m33.015625 40.375q-6.640625 0-10.53125-4.546875-3.875-4.53125-3.875-12.4375 0-7.859375 3.875-12.4375 3.890625-4.5625 10.53125-4.5625 6.640625 0 10.515625 4.5625 3.875 4.578125 3.875 12.4375 0 7.90625-3.875 12.4375-3.875 4.546875-10.515625 4.546875zm19.578125 30.921875v-8.984375q-3.71875 1.75-7.5 2.671875-3.78125.9375-7.5.9375-9.765625 0-14.921875-6.59375-5.140625-6.59375-5.875-19.921875 2.875 4.25 7.21875 6.515625 4.359375 2.265625 9.578125 2.265625 10.984375 0 17.359375-6.671875 6.375-6.65625 6.375-18.125 0-11.234375-6.640625-18.03125-6.640625-6.78125-17.671875-6.78125-12.65625 0-19.34375 9.6875-6.6875 9.703125-6.6875 28.109375 0 17.28125 8.203125 27.5625 8.203125 10.28125 22.015625 10.28125 3.71875 0 7.5-.734375 3.78125-.734375 7.890625-2.1875z"/><use x="95.410156" xlink:href="#C"/><use x="192.822266" xlink:href="#m"/><use x="254.003906" xlink:href="#j"/><use x="317.382812" xlink:href="#g"/><use x="356.591797" xlink:href="#D"/><use x="451.757812" xlink:href="#k"/><use x="515.234375" xlink:href="#l"/><use x="543.017578" xlink:href="#A"/><use x="570.800781" xlink:href="#l"/><use x="598.583984" xlink:href="#j"/><use x="661.962891" xlink:href="#B"/></g></g></g></g></g></svg>