<svg height="432pt" stroke-linejoin="round" viewBox="0 0 576 432" width="576pt" xmlns="http://www.w3.org/2000/svg" xmlns:xlink="http://www.w3.org/1999/xlink"><defs stroke-linejoin="round"><clipPath id="a" stroke-linejoin="round"><path d="m72 43.2h446.4v345.6h-446.4z"/></clipPath><path id="b" d="m0 0v-4" stroke="#000" stroke-linejoin="round" stroke-width=".5"/><path id="c" d="m0 0v4" stroke="#000" stroke-linejoin="round" stroke-width=".5"/><path id="d" d="m19.1875 8.29688h34.4219v-8.29688h-46.28128v8.29688q5.60938 5.81252 15.29688 15.59372 9.7031 9.7969 12.1875 12.6406 4.7344 5.3126 6.6094 9 1.8906 3.6876 1.8906 7.25 0 5.8126-4.0781 9.4688-4.0782 3.6719-10.625 3.6719-4.6406 0-9.7969-1.6094-5.1406-1.6094-11-4.8906v9.9687q5.9531 2.3906 11.125 3.6094 5.1875 1.2188 9.4844 1.2188 11.3281 0 18.0625-5.6719 6.7344-5.6563 6.7344-15.125 0-4.5-1.6876-8.5313-1.6718-4.0156-6.125-9.4844-1.2187-1.4218-7.7656-8.1874-6.5312-6.7657-18.4531-18.92192" stroke-linejoin="round"/><path id="e" d="m31.7812 66.4062q-7.6093 0-11.4531-7.5-3.8281-7.4843-3.8281-22.5312 0-14.9844 3.8281-22.4844 3.8438-7.49998 11.4531-7.49998 7.6719 0 11.5 7.49998 3.8438 7.5 3.8438 22.4844 0 15.0469-3.8438 22.5312-3.8281 7.5-11.5 7.5m0 7.8126q12.2657 0 18.7344-9.7032 6.4688-9.6875 6.4688-28.1406 0-18.4062-6.4688-28.10938-6.4687-9.6875-18.7344-9.6875-12.25 0-18.7187 9.6875-6.46875 9.70318-6.46875 28.10938 0 18.4531 6.46875 28.1406 6.4687 9.7032 18.7187 9.7032" stroke-linejoin="round"/><path id="f" d="m12.4062 8.29688h16.1094v55.62502l-17.5312-3.5157v8.9844l17.4375 3.5156h9.8593v-64.60932h16.1094v-8.29688h-41.9844z" stroke-linejoin="round"/><path id="g" d="m40.5781 39.3125q7.0781-1.5156 11.0469-6.3125 3.9844-4.7812 3.9844-11.8125 0-10.7813-7.4219-16.70312-7.4219-5.90626-21.0937-5.90626-4.5782 0-9.4376.906255-4.8593.90625-10.0312 2.718745v9.51568q4.0938-2.39068 8.9688-3.60942 4.8906-1.21876 10.2187-1.21876 9.2656 0 14.125 3.65628 4.8594 3.6562 4.8594 10.6406 0 6.4531-4.5157 10.0781-4.5156 3.6406-12.5624 3.6406h-8.5v8.1094h8.8906q7.2656 0 11.125 2.9063 3.8594 2.9062 3.8594 8.375 0 5.6093-3.9844 8.6093-3.9688 3.0157-11.3906 3.0157-4.0626 0-8.7032-.8907-4.6406-.875-10.2031-2.7187v8.7813q5.625 1.5624 10.5313 2.3437 4.9062.7813 9.25.7813 11.2343 0 17.7656-5.1094 6.5468-5.0938 6.5468-13.7813 0-6.0625-3.4687-10.2343-3.4687-4.1719-9.8594-5.7813" stroke-linejoin="round"/><path id="h" d="m37.7969 64.3125-24.9063-38.9219h24.9063zm-2.5938 8.5937h12.4063v-47.5156h10.4062v-8.2031h-10.4062v-17.1875h-9.8125v17.1875h-32.90628v9.5156z" stroke-linejoin="round"/><path id="i" d="m10.7969 72.9062h38.7187v-8.3124h-29.6875v-17.8594q2.1407.7344 4.2813 1.0937 2.1562.3594 4.3125.3594 12.2031 0 19.3281-6.6875 7.1406-6.6875 7.1406-18.1094 0-11.7656-7.3281-18.29685-7.3281-6.51563-20.6563-6.51563-4.5937 0-9.3593.781255-4.75.78125-9.82815 2.343745v9.92188q4.39065-2.39062 9.07815-3.5625 4.6875-1.17188 9.9062-1.17188 8.4531 0 13.375 4.43748 4.9375 4.4375 4.9375 12.0625 0 7.6094-4.9375 12.0469-4.9219 4.4531-13.375 4.4531-3.9531 0-7.8906-.875-3.9219-.875-8.0156-2.7344z" stroke-linejoin="round"/><path id="j" d="m33.0156 40.375q-6.6406 0-10.5312-4.5469-3.875-4.5312-3.875-12.4375 0-7.8594 3.875-12.4375 3.8906-4.56248 10.5312-4.56248 6.6406 0 10.5156 4.56248 3.875 4.5781 3.875 12.4375 0 7.9063-3.875 12.4375-3.875 4.5469-10.5156 4.5469m19.5782 30.9219v-8.9844q-3.7188 1.75-7.5 2.6719-3.7813.9375-7.5.9375-9.7657 0-14.9219-6.5938-5.1407-6.5937-5.875-19.9219 2.875 4.25 7.2187 6.5157 4.3594 2.2656 9.5782 2.2656 10.9843 0 17.3593-6.6719 6.375-6.6562 6.375-18.125 0-11.2344-6.6406-18.03122-6.6406-6.78126-17.6719-6.78126-12.6562 0-19.3437 9.6875-6.68752 9.70318-6.68752 28.10938 0 17.2812 8.20312 27.5625 8.2031 10.2813 22.0156 10.2813 3.7188 0 7.5-.7344 3.7813-.7344 7.8907-2.1875" stroke-linejoin="round"/><path id="k" d="m8.20312 72.9062h46.87498v-4.2031l-26.4687-68.7031h-10.2969l24.9063 64.5938h-35.01568z" stroke-linejoin="round"/><path id="l" d="m0 0v-2" stroke="#000" stroke-linejoin="round" stroke-width=".5"/><path id="m" d="m0 0v2" stroke="#000" stroke-linejoin="round" stroke-width=".5"/><path id="n" d="m54.8906 33.0156v-33.0156h-8.9844v32.7188q0 7.7656-3.0312 11.6093-3.0312 3.8594-9.0781 3.8594-7.2813 0-11.4844-4.6406-4.2031-4.625-4.2031-12.6407v-30.9062h-9.03128v54.6875h9.03128v-8.5q3.2344 4.9375 7.5937 7.375 4.375 2.4375 10.0938 2.4375 9.4219 0 14.25-5.8281 4.8437-5.8281 4.8437-17.1563" stroke-linejoin="round"/><path id="o" d="m30.6094 48.3906q-7.2188 0-11.4219-5.6406-4.2031-5.6406-4.2031-15.4531 0-9.8125 4.1718-15.4531 4.1876-5.64068 11.4532-5.64068 7.1875 0 11.375 5.65628 4.2031 5.6718 4.2031 15.4375 0 9.7187-4.2031 15.4062-4.1875 5.6875-11.375 5.6875m0 7.6094q11.7187 0 18.4062-7.625 6.7032-7.6094 6.7032-21.0781 0-13.4219-6.7032-21.07815-6.6875-7.64063-18.4062-7.64063-11.7656 0-18.4375 7.64063-6.65628 7.65625-6.65628 21.07815 0 13.4687 6.65628 21.0781 6.6719 7.625 18.4375 7.625" stroke-linejoin="round"/><path id="p" d="m34.2812 27.4844q-10.8906 0-15.0937-2.4844-4.2031-2.4844-4.2031-8.5 0-4.7812 3.1562-7.59375 3.1563-2.79687 8.5625-2.79687 7.4844 0 12 5.29682 4.5157 5.2969 4.5157 14.0782v2zm17.9219 3.7187v-31.2031h-8.9843v8.29688q-3.0782-4.96876-7.6719-7.343755-4.5938-2.375005-11.2344-2.375005-8.3906 0-13.3594 4.71876-4.9531 4.71874-4.9531 12.62502 0 9.2187 6.1719 13.9062 6.1875 4.6875 18.4375 4.6875h12.6094v.8906q0 6.2032-4.0782 9.5938-4.0781 3.3906-11.4531 3.3906-4.6875 0-9.1406-1.125-4.4375-1.125-8.5313-3.375v8.3125q4.9219 1.9063 9.5625 2.8438 4.6407.9531 9.0313.9531 11.875 0 17.7344-6.1562 5.8593-6.1407 5.8593-18.6407" stroke-linejoin="round"/><path id="q" d="m9.42188 54.6875h8.98432v-54.6875h-8.98432zm0 21.2969h8.98432v-11.3906h-8.98432z" stroke-linejoin="round"/><path id="r" d="m56.2031 29.5938v-4.3907h-41.3125q.5938-9.2812 5.5938-14.1406 5-4.85938 13.9375-4.85938 5.1719 0 10.0312 1.26563 4.8594 1.26563 9.6563 3.81245v-8.49995q-4.8438-2.046875-9.9219-3.125-5.0781-1.07813-10.2969-1.07813-13.0937 0-20.7344 7.60938-7.64058 7.625-7.64058 20.625 0 13.4219 7.24998 21.2969 7.25 7.8906 19.5625 7.8906 11.0313 0 17.4531-7.1094 6.4219-7.0937 6.4219-19.2968m-8.9843 2.6406q-.0938 7.3594-4.125 11.75-4.0313 4.4062-10.6719 4.4062-7.5157 0-12.0313-4.25-4.5156-4.25-5.2031-11.9687z" stroke-linejoin="round"/><path id="s" d="m45.4062 46.3906v29.5938h8.9844v-75.9844h-8.9844v8.20312q-2.8281-4.875-7.1562-7.249995-4.3125-2.375005-10.375-2.375005-9.9062 0-16.1406 7.90626-6.21878 7.92182-6.21878 20.81252 0 12.8906 6.21878 20.7969 6.2344 7.9062 16.1406 7.9062 6.0625 0 10.375-2.375 4.3281-2.3594 7.1562-7.2344m-30.6093-19.0937q0-9.9063 4.0781-15.5469 4.0781-5.64062 11.2031-5.64062 7.125 0 11.2188 5.64062 4.1093 5.6406 4.1093 15.5469 0 9.9062-4.1093 15.5469-4.0938 5.6406-11.2188 5.6406-7.125 0-11.2031-5.6406-4.0781-5.6407-4.0781-15.5469" stroke-linejoin="round"/><path id="t" d="m18.3125 70.2188v-15.5313h18.5v-6.9844h-18.5v-29.6875q0-6.6875 1.8281-8.59372 1.8282-1.90626 7.4532-1.90626h9.2187v-7.51562h-9.2187q-10.4063 0-14.3594 3.875-3.95315 3.89062-3.95315 14.1406v29.6875h-6.59375v6.9844h6.59375v15.5313z" stroke-linejoin="round"/><path id="u" d="m8.5 21.5781v33.1094h8.9844v-32.7656q0-7.7657 3.0156-11.6563 3.0312-3.87498 9.0938-3.87498 7.2656 0 11.4843 4.64058 4.2344 4.6407 4.2344 12.6563v31h8.9844v-54.6875h-8.9844v8.40625q-3.2656-4.98437-7.5937-7.40625-4.3126-2.42188-10.0313-2.42188-9.4219 0-14.3125 5.85938-4.875 5.8594-4.875 17.1406" stroke-linejoin="round"/><path id="v" d="m41.1094 46.2969q-1.5156.875-3.2969 1.2812-1.7813.4219-3.9219.4219-7.625 0-11.7031-4.9531-4.0781-4.9531-4.0781-14.2344v-28.8125h-9.03128v54.6875h9.03128v-8.5q2.8437 4.9844 7.375 7.3906 4.5468 2.4219 11.0468 2.4219.9219 0 2.0469-.125 1.125-.1094 2.4844-.3594z" stroke-linejoin="round"/><path id="w" d="m44.2812 53.0781v-8.5q-3.7968 1.9531-7.9062 2.9219-4.0938.9844-8.5.9844-6.6875 0-10.0312-2.0469-3.3438-2.0469-3.3438-6.1563 0-3.125 2.3906-4.9062 2.3906-1.7812 9.625-3.3906l3.0782-.6875q9.5624-2.0469 13.5937-5.7813 4.0313-3.7344 4.0313-10.4218 0-7.62505-6.0313-12.07818-6.0313-4.4375-16.5781-4.4375-4.3906 0-9.1563.85938-4.7656.859375-10.03122 2.5625v9.2812q4.98432-2.5937 9.81252-3.89058 4.8281-1.28124 9.5781-1.28124 6.3437 0 9.75 2.17187 3.4219 2.17185 3.4219 6.12495 0 3.6563-2.4688 5.6094-2.4531 1.9532-10.8125 3.7656l-3.125.7344q-8.3437 1.75-12.06248 5.3906-3.70312 3.6407-3.70312 9.9844 0 7.7188 5.4687 11.9063 5.4688 4.2031 15.5313 4.2031 4.9687 0 9.3594-.7344 4.4062-.7187 8.1093-2.1875" stroke-linejoin="round"/><path id="x" d="m0 0h4" stroke="#000" stroke-linejoin="round" stroke-width=".5"/><path id="y" d="m0 0h-4" stroke="#000" stroke-linejoin="round" stroke-width=".5"/><path id="z" d="m10.6875 12.4062h10.3125v-12.4062h-10.3125z" stroke-linejoin="round"/><path id="A" d="m9.42188 75.9844h8.98432v-75.9844h-8.98432z" stroke-linejoin="round"/><path id="B" d="m37.1094 75.9844v-7.4844h-8.5938q-4.8281 0-6.7187-1.9531-1.875-1.9531-1.875-7.0313v-4.8281h14.7969v-6.9844h-14.7969v-47.7031h-9.0313v47.7031h-8.59372v6.9844h8.59372v3.8125q0 9.125 4.25 13.2969 4.25 4.1875 13.4688 4.1875z" stroke-linejoin="round"/><path id="C" d="m48.7812 52.5938v-8.4063q-3.8124 2.1094-7.6406 3.1563-3.8281 1.0468-7.7344 1.0468-8.75 0-13.5937-5.5468-4.8281-5.5313-4.8281-15.5469 0-10.0157 4.8281-15.5625 4.8437-5.53128 13.5937-5.53128 3.9063 0 7.7344 1.04688 3.8282 1.04688 7.6406 3.1562v-8.31245q-3.7656-1.75-7.7968-2.625-4.0156-.89063-8.5625-.89063-12.3594 0-19.6407 7.76563-7.26558 7.76565-7.26558 20.95315 0 13.375 7.34378 21.0312 7.3594 7.6719 20.1562 7.6719 4.1406 0 8.0938-.8594 3.9531-.8437 7.6718-2.5468" stroke-linejoin="round"/><path id="D" d="m9.8125 72.9062h13.2813l32.3281-60.9843v60.9843h9.5625v-72.9062h-13.2813l-32.3125 60.9844v-60.9844h-9.5781z" stroke-linejoin="round"/><path id="E" d="m53.5156 70.5156v-9.625q-5.6094 2.6875-10.5937 4-4.9844 1.3282-9.625 1.3282-8.0469 0-12.4219-3.125-4.375-3.125-4.375-8.8907 0-4.8437 2.9062-7.3125 2.9063-2.4531 11.0157-3.9687l5.9531-1.2188q11.0312-2.1093 16.2812-7.4062 5.25-5.2969 5.25-14.1719 0-10.60938-7.1093-16.07812-7.0938-5.46876-20.8125-5.46876-5.1719 0-11.0156 1.17188-5.8282 1.171875-12.07818 3.46875v10.15625q5.99998-3.3594 11.76558-5.07812 5.7657-1.70313 11.3282-1.70313 8.4375 0 13.0312 3.3125 4.5938 3.32815 4.5938 9.48435 0 5.3594-3.2969 8.3906-3.2969 3.0313-10.8125 4.5469l-6.0156 1.1719q-11.0313 2.1875-15.9688 6.875-4.92185 4.6875-4.92185 13.0469 0 9.6719 6.81245 15.2343 6.8126 5.5626 18.7657 5.5626 5.1406 0 10.4531-.9376 5.3281-.9218 10.8906-2.7656" stroke-linejoin="round"/><path id="F" d="m34.1875 63.1875-13.3906-36.2813h26.8125zm-5.5781 9.7187h11.1875l27.7812-72.9062h-10.25l-6.6406 18.7031h-32.8594l-6.6406-18.7031h-10.40625z" stroke-linejoin="round"/><path id="G" d="m3.32812 72.9062h9.95308l15.3282-61.625 15.2812 61.625h11.0938l15.3281-61.625 15.2813 61.625h10.0156l-18.3125-72.9062h-12.4063l-15.375 63.2812-15.5312-63.2812h-12.4063z" stroke-linejoin="round"/><path id="H" d="m54.8906 33.0156v-33.0156h-8.9844v32.7188q0 7.7656-3.0312 11.6093-3.0312 3.8594-9.0781 3.8594-7.2813 0-11.4844-4.6406-4.2031-4.625-4.2031-12.6407v-30.9062h-9.03128v75.9844h9.03128v-29.7969q3.2344 4.9375 7.5937 7.375 4.375 2.4375 10.0938 2.4375 9.4219 0 14.25-5.8281 4.8437-5.8281 4.8437-17.1563" stroke-linejoin="round"/></defs><g stroke-linejoin="round"><path d="m0 432h576v-432h-576z" fill="#fff"/><g><path d="m72 388.8h446.4v-345.6h-446.4z" fill="#fff"/><g fill="none"><path clip-path="url(#a)" d="m129.707 387.835 3.066-7.57 3.063-7.571 3.061-7.571 3.058-7.571 3.057-7.571 3.053-7.571 3.052-7.571 3.049-7.571 3.046-7.571 3.044-7.571 3.042-7.571 3.039-7.57 3.037-7.571 3.035-7.571 3.032-7.571 3.03-7.571 3.027-7.571 3.025-7.571 3.023-7.571 3.02-7.571 3.018-7.571 3.016-7.571 3.013-7.571 3.01-7.57 3.009-7.571 3.006-7.571 3.003-7.571 3.001-7.571 2.999-7.571 2.996-7.571 2.994-7.571 2.992-7.571 2.989-7.571 2.987-7.571 2.984-7.57 2.982-7.571 2.98-7.571 2.977-7.571 2.975-7.5711 2.972-7.5709 2.97-7.5709 2.968-7.5709 2.965-7.5709 2.963-7.5709 2.96-7.571 2.959-7.5709 2.955-7.5709 2.954-7.5709 2.951-7.5709" stroke="#00f" stroke-linecap="square" stroke-width="2"/><path clip-path="url(#a)" d="m133.972 387.835 3.33-7.57 3.326-7.571 3.324-7.571 3.321-7.571 3.318-7.571 3.315-7.571 3.313-7.571 3.309-7.571 3.307-7.571 3.304-7.571 3.301-7.571 3.298-7.57 3.296-7.571 3.292-7.571 3.29-7.571 3.287-7.571 3.284-7.571 3.281-7.571 3.278-7.571 3.275-7.571 3.273-7.571 3.27-7.571 3.266-7.571 3.264-7.57 3.262-7.571 3.258-7.571 3.255-7.571 3.253-7.571 3.25-7.571 3.247-7.571 3.244-7.571 3.241-7.571 3.238-7.571 3.236-7.571 3.233-7.57 3.23-7.571 3.227-7.571 3.224-7.571 3.221-7.5711 3.218-7.5709 3.216-7.5709 3.213-7.5709 3.21-7.5709 3.207-7.5709 3.204-7.571 3.201-7.5709 3.199-7.5709 3.196-7.5709 3.192-7.5709" stroke="#008000" stroke-linecap="square" stroke-width="2"/><path clip-path="url(#a)" d="m152.006 387.835 4.328-7.57 4.322-7.571 4.318-7.571 4.313-7.571 4.308-7.571 4.302-7.571 4.298-7.571 4.293-7.571 4.288-7.571 4.283-7.571 4.277-7.571 4.273-7.57 4.268-7.571 4.263-7.571 4.257-7.571 4.253-7.571 4.248-7.571 4.243-7.571 4.237-7.571 4.233-7.571 4.228-7.571 4.222-7.571 4.218-7.571 4.213-7.57 4.208-7.571 4.202-7.571 4.198-7.571 4.193-7.571 4.188-7.571 4.182-7.571 4.178-7.571 4.173-7.571 4.167-7.571 4.163-7.571 4.158-7.57 4.153-7.571 4.147-7.571 4.143-7.571 4.138-7.5711 4.132-7.5709 4.128-7.5709 4.123-7.5709 4.117-7.5709 4.113-7.5709 4.108-7.571 4.102-7.5709 4.098-7.5709 4.093-7.5709 4.088-7.5709" stroke="#f00" stroke-linecap="square" stroke-width="2"/><path clip-path="url(#a)" d="m156.435 387.835 4.594-7.57 4.589-7.571 4.583-7.571 4.577-7.571 4.572-7.571 4.565-7.571 4.561-7.571 4.554-7.571 4.549-7.571 4.543-7.571 4.537-7.571 4.532-7.57 4.525-7.571 4.521-7.571 4.514-7.571 4.509-7.571 4.503-7.571 4.498-7.571 4.491-7.571 4.486-7.571 4.481-7.571 4.474-7.571 4.469-7.571 4.464-7.57 4.457-7.571 4.452-7.571 4.446-7.571 4.44-7.571 4.435-7.571 4.429-7.571 4.424-7.571 4.417-7.571 4.412-7.571 4.406-7.571 4.401-7.57 4.395-7.571 4.389-7.571 4.384-7.571 4.377-7.5711 4.372-7.5709 4.367-7.5709 4.36-7.5709 4.355-7.5709 4.35-7.5709 4.343-7.571 4.338-7.5709 4.332-7.5709 4.327-7.5709 4.321-7.5709" stroke="#00bfbf" stroke-linecap="square" stroke-width="2"/><path clip-path="url(#a)" d="m176.377 387.835 5.803-7.57 5.794-7.571 5.784-7.571 5.775-7.571 5.765-7.571 5.756-7.571 5.746-7.571 5.736-7.571 5.727-7.571 5.718-7.571 5.707-7.571 5.699-7.57 5.688-7.571 5.679-7.571 5.67-7.571 5.66-7.571 5.65-7.571 5.641-7.571 5.631-7.571 5.621-7.571 5.612-7.571 5.603-7.571 5.593-7.571 5.583-7.57 5.574-7.571 5.564-7.571 5.555-7.571 5.545-7.571 5.535-7.571 5.526-7.571 5.516-7.571 5.507-7.571 5.497-7.571 5.488-7.571 5.478-7.57 5.468-7.571 5.459-7.571 5.45-7.571 5.439-7.5711 5.43-7.5709 5.421-7.5709 5.411-7.5709 5.402-7.5709 5.391-7.5709 5.383-7.571 5.372-7.5709 5.364-7.5709 5.353-7.5709 5.344-7.5709" stroke="#bf00bf" stroke-linecap="square" stroke-width="2"/><path clip-path="url(#a)" d="m168.797 388.8v-345.6" stroke="#008000" stroke-dasharray="1 3"/><path clip-path="url(#a)" d="m259.702 388.8v-345.6" stroke="#00f" stroke-dasharray="1 3"/></g><g><g><use stroke="#000" stroke-width=".5" x="72" xlink:href="#b" y="388.8"/><use stroke="#000" stroke-width=".5" x="72" xlink:href="#c" y="43.2"/><g transform="matrix(.12 0 0 -.12 60.42 403.144375)"><use transform="translate(0 .546875)" xlink:href="#f"/><use transform="translate(63.623047 .546875)" xlink:href="#e"/><use transform="matrix(.7 0 0 .7 127.246094 53.046875)" xlink:href="#d"/></g></g><g><use stroke="#000" stroke-width=".5" x="146.4" xlink:href="#b" y="388.8"/><use stroke="#000" stroke-width=".5" x="146.4" xlink:href="#c" y="43.2"/><g transform="matrix(.12 0 0 -.12 134.82 403.144375)"><use transform="translate(0 .546875)" xlink:href="#f"/><use transform="translate(63.623047 .546875)" xlink:href="#e"/><use transform="matrix(.7 0 0 .7 127.246094 53.046875)" xlink:href="#g"/></g></g><g><use stroke="#000" stroke-width=".5" x="220.8" xlink:href="#b" y="388.8"/><use stroke="#000" stroke-width=".5" x="220.8" xlink:href="#c" y="43.2"/><g transform="matrix(.12 0 0 -.12 209.22 403.024375)"><use transform="translate(0 .465625)" xlink:href="#f"/><use transform="translate(63.623047 .465625)" xlink:href="#e"/><use transform="matrix(.7 0 0 .7 127.246094 52.965625)" xlink:href="#h"/></g></g><g><use stroke="#000" stroke-width=".5" x="295.2" xlink:href="#b" y="388.8"/><use stroke="#000" stroke-width=".5" x="295.2" xlink:href="#c" y="43.2"/><g transform="matrix(.12 0 0 -.12 283.62 403.024375)"><use transform="translate(0 .465625)" xlink:href="#f"/><use transform="translate(63.623047 .465625)" xlink:href="#e"/><use transform="matrix(.7 0 0 .7 127.246094 52.965625)" xlink:href="#i"/></g></g><g><use stroke="#000" stroke-width=".5" x="369.6" xlink:href="#b" y="388.8"/><use stroke="#000" stroke-width=".5" x="369.6" xlink:href="#c" y="43.2"/><g transform="matrix(.12 0 0 -.12 358.02 403.144375)"><use transform="translate(0 .546875)" xlink:href="#f"/><use transform="translate(63.623047 .546875)" xlink:href="#e"/><use transform="matrix(.7 0 0 .7 127.246094 53.046875)" xlink:href="#j"/></g></g><g><use stroke="#000" stroke-width=".5" x="444" xlink:href="#b" y="388.8"/><use stroke="#000" stroke-width=".5" x="444" xlink:href="#c" y="43.2"/><g transform="matrix(.12 0 0 -.12 432.42 403.024375)"><use transform="translate(0 .465625)" xlink:href="#f"/><use transform="translate(63.623047 .465625)" xlink:href="#e"/><use transform="matrix(.7 0 0 .7 127.246094 52.965625)" xlink:href="#k"/></g></g><g><use stroke="#000" stroke-width=".5" x="518.4" xlink:href="#b" y="388.8"/><use stroke="#000" stroke-width=".5" x="518.4" xlink:href="#c" y="43.2"/><g transform="matrix(.12 0 0 -.12 506.82 403.144375)"><use transform="translate(0 .546875)" xlink:href="#f"/><use transform="translate(63.623047 .546875)" xlink:href="#e"/><path d="m31.7812 34.625q-7.0312 0-11.0624-3.7656-4.0157-3.7656-4.0157-10.3438 0-6.5937 4.0157-10.3594 4.0312-3.76558 11.0624-3.76558 7.0313 0 11.0782 3.78128 4.0625 3.7969 4.0625 10.3437 0 6.5782-4.0313 10.3438-4.0156 3.7656-11.1094 3.7656m-9.8593 4.1875q-6.3438 1.5625-9.8907 5.9063-3.5312 4.3593-3.5312 10.6093 0 8.7344 6.2188 13.8125 6.2343 5.0782 17.0624 5.0782 10.8907 0 17.0938-5.0782 6.2031-5.0781 6.2031-13.8125 0-6.25-3.5469-10.6093-3.5312-4.3438-9.8281-5.9063 7.125-1.6563 11.0938-6.5 3.9843-4.8281 3.9843-11.7969 0-10.60935-6.4687-16.28122-6.4687-5.65626-18.5313-5.65626-12.0468 0-18.5312 5.65626-6.46875 5.67187-6.46875 16.28122 0 6.9688 3.99995 11.7969 4.0157 4.8437 11.1407 6.5m-3.6094 15.5781q0-5.6562 3.5313-8.8281 3.5468-3.1719 9.9374-3.1719 6.3594 0 9.9376 3.1719 3.5937 3.1719 3.5937 8.8281 0 5.6719-3.5937 8.8438-3.5782 3.1718-9.9376 3.1718-6.3906 0-9.9374-3.1718-3.5313-3.1719-3.5313-8.8438" transform="matrix(.7 0 0 .7 127.246094 53.046875)"/></g></g><g stroke="#000" stroke-width=".5"><g><use x="94.396632" xlink:href="#l" y="388.8"/><use x="94.396632" xlink:href="#m" y="43.2"/></g><g><use x="107.497821" xlink:href="#l" y="388.8"/><use x="107.497821" xlink:href="#m" y="43.2"/></g><g><use x="116.793263" xlink:href="#l" y="388.8"/><use x="116.793263" xlink:href="#m" y="43.2"/></g><g><use x="124.003368" xlink:href="#l" y="388.8"/><use x="124.003368" xlink:href="#m" y="43.2"/></g><g><use x="129.894453" xlink:href="#l" y="388.8"/><use x="129.894453" xlink:href="#m" y="43.2"/></g><g><use x="134.875294" xlink:href="#l" y="388.8"/><use x="134.875294" xlink:href="#m" y="43.2"/></g><g><use x="139.189895" xlink:href="#l" y="388.8"/><use x="139.189895" xlink:href="#m" y="43.2"/></g><g><use x="142.995643" xlink:href="#l" y="388.8"/><use x="142.995643" xlink:href="#m" y="43.2"/></g><g><use x="168.796632" xlink:href="#l" y="388.8"/><use x="168.796632" xlink:href="#m" y="43.2"/></g><g><use x="181.897821" xlink:href="#l" y="388.8"/><use x="181.897821" xlink:href="#m" y="43.2"/></g><g><use x="191.193263" xlink:href="#l" y="388.8"/><use x="191.193263" xlink:href="#m" y="43.2"/></g><g><use x="198.403368" xlink:href="#l" y="388.8"/><use x="198.403368" xlink:href="#m" y="43.2"/></g><g><use x="204.294453" xlink:href="#l" y="388.8"/><use x="204.294453" xlink:href="#m" y="43.2"/></g><g><use x="209.275294" xlink:href="#l" y="388.8"/><use x="209.275294" xlink:href="#m" y="43.2"/></g><g><use x="213.589895" xlink:href="#l" y="388.8"/><use x="213.589895" xlink:href="#m" y="43.2"/></g><g><use x="217.395643" xlink:href="#l" y="388.8"/><use x="217.395643" xlink:href="#m" y="43.2"/></g><g><use x="243.196632" xlink:href="#l" y="388.8"/><use x="243.196632" xlink:href="#m" y="43.2"/></g><g><use x="256.297821" xlink:href="#l" y="388.8"/><use x="256.297821" xlink:href="#m" y="43.2"/></g><g><use x="265.593263" xlink:href="#l" y="388.8"/><use x="265.593263" xlink:href="#m" y="43.2"/></g><g><use x="272.803368" xlink:href="#l" y="388.8"/><use x="272.803368" xlink:href="#m" y="43.2"/></g><g><use x="278.694453" xlink:href="#l" y="388.8"/><use x="278.694453" xlink:href="#m" y="43.2"/></g><g><use x="283.675294" xlink:href="#l" y="388.8"/><use x="283.675294" xlink:href="#m" y="43.2"/></g><g><use x="287.989895" xlink:href="#l" y="388.8"/><use x="287.989895" xlink:href="#m" y="43.2"/></g><g><use x="291.795643" xlink:href="#l" y="388.8"/><use x="291.795643" xlink:href="#m" y="43.2"/></g><g><use x="317.596632" xlink:href="#l" y="388.8"/><use x="317.596632" xlink:href="#m" y="43.2"/></g><g><use x="330.697821" xlink:href="#l" y="388.8"/><use x="330.697821" xlink:href="#m" y="43.2"/></g><g><use x="339.993263" xlink:href="#l" y="388.8"/><use x="339.993263" xlink:href="#m" y="43.2"/></g><g><use x="347.203368" xlink:href="#l" y="388.8"/><use x="347.203368" xlink:href="#m" y="43.2"/></g><g><use x="353.094453" xlink:href="#l" y="388.8"/><use x="353.094453" xlink:href="#m" y="43.2"/></g><g><use x="358.075294" xlink:href="#l" y="388.8"/><use x="358.075294" xlink:href="#m" y="43.2"/></g><g><use x="362.389895" xlink:href="#l" y="388.8"/><use x="362.389895" xlink:href="#m" y="43.2"/></g><g><use x="366.195643" xlink:href="#l" y="388.8"/><use x="366.195643" xlink:href="#m" y="43.2"/></g><g><use x="391.996632" xlink:href="#l" y="388.8"/><use x="391.996632" xlink:href="#m" y="43.2"/></g><g><use x="405.097821" xlink:href="#l" y="388.8"/><use x="405.097821" xlink:href="#m" y="43.2"/></g><g><use x="414.393263" xlink:href="#l" y="388.8"/><use x="414.393263" xlink:href="#m" y="43.2"/></g><g><use x="421.603368" xlink:href="#l" y="388.8"/><use x="421.603368" xlink:href="#m" y="43.2"/></g><g><use x="427.494453" xlink:href="#l" y="388.8"/><use x="427.494453" xlink:href="#m" y="43.2"/></g><g><use x="432.475294" xlink:href="#l" y="388.8"/><use x="432.475294" xlink:href="#m" y="43.2"/></g><g><use x="436.789895" xlink:href="#l" y="388.8"/><use x="436.789895" xlink:href="#m" y="43.2"/></g><g><use x="440.595643" xlink:href="#l" y="388.8"/><use x="440.595643" xlink:href="#m" y="43.2"/></g><g><use x="466.396632" xlink:href="#l" y="388.8"/><use x="466.396632" xlink:href="#m" y="43.2"/></g><g><use x="479.497821" xlink:href="#l" y="388.8"/><use x="479.497821" xlink:href="#m" y="43.2"/></g><g><use x="488.793263" xlink:href="#l" y="388.8"/><use x="488.793263" xlink:href="#m" y="43.2"/></g><g><use x="496.003368" xlink:href="#l" y="388.8"/><use x="496.003368" xlink:href="#m" y="43.2"/></g><g><use x="501.894453" xlink:href="#l" y="388.8"/><use x="501.894453" xlink:href="#m" y="43.2"/></g><g><use x="506.875294" xlink:href="#l" y="388.8"/><use x="506.875294" xlink:href="#m" y="43.2"/></g><g><use x="511.189895" xlink:href="#l" y="388.8"/><use x="511.189895" xlink:href="#m" y="43.2"/></g><g><use x="514.995643" xlink:href="#l" y="388.8"/><use x="514.995643" xlink:href="#m" y="43.2"/></g></g><g transform="matrix(.12 0 0 -.12 231.683438 419.758125)"><path d="m44.3906 34.1875q3.1719-1.0781 6.1719-4.5937 3-3.5157 6.0313-9.6719l10.0156-19.9219h-10.6094l-9.3125 18.7031q-3.625 7.3281-7.0156 9.7188-3.3907 2.3906-9.25 2.3906h-10.75v-30.8125h-9.8594v72.9062h22.2656q12.5 0 18.6563-5.2343 6.1562-5.2188 6.1562-15.7657 0-6.8906-3.2031-11.4374-3.2031-4.5313-9.2969-6.2813m-24.7187 30.6094v-25.875h12.4062q7.125 0 10.7657 3.2969 3.6406 3.2968 3.6406 9.6874 0 6.3907-3.6406 9.6407-3.6407 3.25-10.7657 3.25z"/><use x="64.982422" xlink:href="#r"/><use x="126.505859" xlink:href="#t"/><use x="165.714844" xlink:href="#u"/><use x="229.09375" xlink:href="#v"/><use x="268.457031" xlink:href="#n"/><path d="m18.1094 8.20312v-29.00002h-9.03128v75.4844h9.03128v-8.2969q2.8437 4.875 7.1562 7.2344 4.3282 2.375 10.3282 2.375 9.9687 0 16.1874-7.9062 6.2344-7.9063 6.2344-20.7969 0-12.8907-6.2344-20.81252-6.2187-7.90626-16.1874-7.90626-6 0-10.3282 2.375005-4.3125 2.374995-7.1562 7.249995m30.5781 19.09378q0 9.9062-4.0781 15.5469-4.0782 5.6406-11.2032 5.6406-7.1406 0-11.2187-5.6406-4.0781-5.6407-4.0781-15.5469 0-9.9063 4.0781-15.5469 4.0781-5.64062 11.2187-5.64062 7.125 0 11.2032 5.64062 4.0781 5.6406 4.0781 15.5469" transform="translate(363.623047)"/><use x="427.099609" xlink:href="#r"/><use x="488.623047" xlink:href="#v"/><use x="529.736328" xlink:href="#q"/><use x="557.519531" xlink:href="#o"/><use x="618.701172" xlink:href="#s"/><path d="m31 75.875q-6.5312-11.2188-9.7188-22.2188-3.1718-10.9843-3.1718-22.2656 0-11.2656 3.2031-22.3281 3.2031-11.0625 9.6875-22.25h-7.8125q-7.3125 11.48438-10.9531 22.5625-3.64065 11.0781-3.64065 22.0156 0 10.8906 3.60935 21.9219 3.625 11.0469 10.9844 22.5625z" transform="translate(713.964844)"/><path d="m32.1719-5.07812q-3.7969-9.76568-7.4219-12.73438-3.6094-2.9844-9.6562-2.9844h-7.18755v7.5157h5.28125q3.7031 0 5.75 1.7656 2.0625 1.74998 4.5469 8.29685l1.6094 4.09375-22.10942 53.8125h9.51562l17.0938-42.7656 17.0937 42.7656h9.5156z" transform="translate(752.978516)"/><use x="812.158203" xlink:href="#r"/><use x="873.681641" xlink:href="#p"/><use x="934.960938" xlink:href="#v"/><use x="976.074219" xlink:href="#w"/><path d="m8.01562 75.875h7.81248q7.3125-11.5156 10.9531-22.5625 3.6407-11.0313 3.6407-21.9219 0-10.9375-3.6407-22.0156-3.6406-11.07812-10.9531-22.5625h-7.81248q6.48438 11.1875 9.68748 22.25 3.2031 11.0625 3.2031 22.3281 0 11.2813-3.2031 22.2656-3.2031 11-9.68748 22.2188" transform="translate(1028.173828)"/></g></g><g><g><use stroke="#000" stroke-width=".5" x="72" xlink:href="#x" y="348.141176"/><use stroke="#000" stroke-width=".5" x="518.4" xlink:href="#y" y="348.141176"/><g transform="matrix(.12 0 0 -.12 51.3425 351.452426)"><use xlink:href="#f"/><use x="63.623047" xlink:href="#z"/><use x="95.410156" xlink:href="#f"/></g></g><g><use stroke="#000" stroke-width=".5" x="72" xlink:href="#x" y="297.317647"/><use stroke="#000" stroke-width=".5" x="518.4" xlink:href="#y" y="297.317647"/><g transform="matrix(.12 0 0 -.12 51.43625 300.628897)"><use xlink:href="#f"/><use x="63.623047" xlink:href="#z"/><use x="95.410156" xlink:href="#d"/></g></g><g><use stroke="#000" stroke-width=".5" x="72" xlink:href="#x" y="246.494118"/><use stroke="#000" stroke-width=".5" x="518.4" xlink:href="#y" y="246.494118"/><g transform="matrix(.12 0 0 -.12 51.19625 249.805368)"><use xlink:href="#f"/><use x="63.623047" xlink:href="#z"/><use x="95.410156" xlink:href="#g"/></g></g><g><use stroke="#000" stroke-width=".5" x="72" xlink:href="#x" y="195.670588"/><use stroke="#000" stroke-width=".5" x="518.4" xlink:href="#y" y="195.670588"/><g transform="matrix(.12 0 0 -.12 50.9075 198.981838)"><use xlink:href="#f"/><use x="63.623047" xlink:href="#z"/><use x="95.410156" xlink:href="#h"/></g></g><g><use stroke="#000" stroke-width=".5" x="72" xlink:href="#x" y="144.847059"/><use stroke="#000" stroke-width=".5" x="518.4" xlink:href="#y" y="144.847059"/><g transform="matrix(.12 0 0 -.12 51.2825 148.158309)"><use xlink:href="#f"/><use x="63.623047" xlink:href="#z"/><use x="95.410156" xlink:href="#i"/></g></g><g><use stroke="#000" stroke-width=".5" x="72" xlink:href="#x" y="94.023529"/><use stroke="#000" stroke-width=".5" x="518.4" xlink:href="#y" y="94.023529"/><g transform="matrix(.12 0 0 -.12 50.99 97.334779)"><use xlink:href="#f"/><use x="63.623047" xlink:href="#z"/><use x="95.410156" xlink:href="#j"/></g></g><g transform="matrix(.12 0 0 -.12 51.26 46.51125)"><use xlink:href="#f"/><use x="63.623047" xlink:href="#z"/><use x="95.410156" xlink:href="#k"/></g><g transform="matrix(0 -.12 -.12 0 42.6675 284.7)"><path d="m19.6719 64.7969v-27.3907h12.4062q6.8907 0 10.6407 3.5626 3.7656 3.5624 3.7656 10.1562 0 6.5469-3.7656 10.1094-3.75 3.5625-10.6407 3.5625zm-9.8594 8.1093h22.2656q12.2657 0 18.5313-5.5468 6.2812-5.5469 6.2812-16.2344 0-10.7969-6.2812-16.3125-6.2656-5.5156-18.5313-5.5156h-12.4062v-29.2969h-9.8594z" transform="translate(0 .015625)"/><use transform="translate(60.302734 .015625)" xlink:href="#p"/><use transform="translate(121.582031 .015625)" xlink:href="#v"/><use transform="translate(162.695313 .015625)" xlink:href="#t"/><use transform="translate(201.904297 .015625)" xlink:href="#q"/><use transform="translate(229.6875 .015625)" xlink:href="#p"/><use transform="translate(290.966797 .015625)" xlink:href="#A"/><use transform="translate(350.537109 .015625)" xlink:href="#p"/><use transform="translate(411.816406 .015625)" xlink:href="#C"/><use transform="translate(466.796875 .015625)" xlink:href="#t"/><use transform="translate(506.005859 .015625)" xlink:href="#q"/><use transform="translate(533.789063 .015625)" xlink:href="#o"/><use transform="translate(594.970703 .015625)" xlink:href="#n"/><use transform="translate(690.136719 .015625)" xlink:href="#B"/><use transform="translate(725.341797 .015625)" xlink:href="#p"/><use transform="translate(786.621094 .015625)" xlink:href="#C"/><use transform="translate(841.601563 .015625)" xlink:href="#t"/><use transform="translate(880.810547 .015625)" xlink:href="#o"/><use transform="translate(941.992188 .015625)" xlink:href="#v"/><path d="m11.7188 12.4062h10.2968v-8.4062l-8-15.625h-6.29685l4.00005 15.625z" transform="translate(983.105469 .015625)"/><path d="m29.5-19.5781q0 2.25 1 6.5469 1 4.29682 2.4375 9.1562 1.4375 4.859375 2.4687 7.98438.3907 4.96874.3907 7.51562 0 6.4375-1.2813 11.9844-1.2656 5.5468-4.7812 9.2812-3.5156 3.7344-9.8125 3.7344-3.3125 0-6.6094-1.4219-3.2969-1.4062-5.67188-3.9531-2.35937-2.5312-3.25-5.7656-.1875-.5782-.78124-.5782h-1.21876q-.78124 0-.78124.875v.3438q1.125 4.4844 3.98437 8.6562 2.85937 4.1876 6.98435 6.7969 4.125 2.6094 8.7188 2.6094 4.6875 0 8.0937-3.1719 3.4219-3.1718 5.4688-8.0625 2.0625-4.875 2.9531-9.8593.9063-4.9844.9063-9.375 5.0312 13.6718 11.2812 25.875l1.5156 3.2343q.2969.2813.6875.2813h1.2188q.7812 0 .7812-.9219 0-.1875-.2031-.5781l-1.5156-3.125q-4.3438-8.6563-7.9844-17.5469-3.625-8.875-6.2188-17.125-.3906-3.375-1.5-9.23438-1.0937-5.85932-2.6562-10.90622-1.5625-5.0625-3.125-5.25-1.5 0-1.5 2" transform="translate(1046.679688 .015625)"/><path d="m20.125-1.125q-4.7969 0-8.3906 2.48438-3.57815 2.5-5.46878 6.71874-1.875 4.23438-1.875 8.92188 0 7.125 3.59376 13.3906 3.59372 6.2813 9.73442 10.0313 6.1562 3.7656 13.1874 3.7656 4.2969 0 7.5-2.2187 3.2032-2.2188 3.2032-6.375 0-5.7657-4.5938-8.5782-4.5937-2.7968-10.3594-3.4531-5.75-.6563-12.7343-.6563h-.2969q-1.6094-5.9687-1.6094-10.2031 0-4.4531 2.0469-7.8281 2.0469-3.35938 6.25-3.35938 5.9531 0 11.4375 2.73438 5.5 2.73438 8.9688 7.5625.2968.2969.7812.2969.5 0 1-.5625.5156-.5625.5156-1.0469 0-.3906-.1875-.59375-3.6719-5.125-9.875-8.07813-6.1875-2.95312-12.8281-2.95312m-5.9219 26.6094q5.8125 0 10.75.5312 4.9375.5469 8.9375 2.7188 4 2.1718 4 6.7656 0 1.8594-1.0312 3.25-1.0156 1.3906-2.6563 2.125-1.6406.7344-3.3906.7344-4.25 0-7.6406-2.2969-3.3907-2.2969-5.5938-5.9844-2.2031-3.6875-3.375-7.8437" transform="matrix(.7 0 0 .7 1098.388672 -25.49375)"/></g></g><path d="m72 43.2h446.4" fill="none" stroke="#000"/><path d="m518.4 388.8v-345.6" fill="none" stroke="#000"/><path d="m72 388.8h446.4" fill="none" stroke="#000"/><path d="m72 388.8v-345.6" fill="none" stroke="#000"/><g><path d="m230.231 381.6h280.969v-110.002h-280.969z" fill="#fff" stroke="#000"/><path d="m240.311 283.259h20.16" fill="none" stroke="#00f" stroke-linecap="square" stroke-width="2"/><g transform="matrix(.144 0 0 -.144 276.31125 288.29925)"><use xlink:href="#F"/><use x="68.408203" xlink:href="#u"/><use x="131.787109" xlink:href="#w"/><use x="183.886719" xlink:href="#t"/><use x="223.095703" xlink:href="#v"/><use x="264.208984" xlink:href="#p"/><use x="325.488281" xlink:href="#A"/><use x="353.271484" xlink:href="#q"/><use x="381.054688" xlink:href="#p"/><use x="442.333984" xlink:href="#n"/><use x="537.5" xlink:href="#D"/><use x="612.304688" xlink:href="#G"/><use x="711.181641" xlink:href="#E"/></g><path d="m240.311 304.396h20.16" fill="none" stroke="#008000" stroke-linecap="square" stroke-width="2"/><g transform="matrix(.144 0 0 -.144 276.31125 309.43575)"><path d="m59.5156 10.4062v19.5782h-16.1094v8.1094h25.875v-31.31255q-5.7031-4.04687-12.5937-6.125-6.875-2.07813-14.6875-2.07813-17.0938 0-26.75 9.98438-9.64062 10-9.64062 27.8125 0 17.875 9.64062 27.8594 9.6562 9.9844 26.75 9.9844 7.125 0 13.5469-1.7657 6.4219-1.75 11.8437-5.1719v-10.5q-5.4687 4.6407-11.625 6.9844-6.1562 2.3438-12.9375 2.3438-13.3906 0-20.1093-7.4688-6.7032-7.4687-6.7032-22.2656 0-14.75 6.7032-22.2188 6.7187-7.4687 20.1093-7.4687 5.2188 0 9.3125.90625 4.1094.90625 7.375 2.81245"/><use x="77.490234" xlink:href="#u"/><use x="140.869141" xlink:href="#A"/><use x="168.652344" xlink:href="#B"/><use x="235.644531" xlink:href="#o"/><use x="296.826172" xlink:href="#B"/><path d="m9.8125 72.9062h14.7031l18.5938-49.6093 18.7031 49.6093h14.7031v-72.9062h-9.625v64.0156l-18.7968-50h-9.9063l-18.7969 50v-64.0156h-9.5781z" transform="translate(363.818359)"/><use x="450.097656" xlink:href="#r"/><path d="m54.8906 54.6875-19.7812-26.6094 20.7968-28.0781h-10.5937l-15.9219 21.4844-15.9062-21.4844h-10.6094l21.25 28.6094-19.4375 26.0781h10.5937l14.5-19.4844 14.5 19.4844z" transform="translate(509.871094)"/><use x="569.050781" xlink:href="#q"/><use x="596.833984" xlink:href="#C"/><use x="651.814453" xlink:href="#o"/></g><path d="m240.311 325.532h20.16" fill="none" stroke="#f00" stroke-linecap="square" stroke-width="2"/><g transform="matrix(.144 0 0 -.144 276.31125 330.57225)"><use xlink:href="#D"/><use x="74.804688" xlink:href="#o"/><use x="135.986328" xlink:href="#v"/><use x="177.099609" xlink:href="#t"/><use x="216.308594" xlink:href="#H"/><use x="279.6875" xlink:href="#r"/><use x="341.210938" xlink:href="#v"/><use x="380.574219" xlink:href="#n"/><use x="475.740234" xlink:href="#D"/><use x="550.544922" xlink:href="#o"/><use x="611.726563" xlink:href="#v"/><use x="652.839844" xlink:href="#t"/><use x="692.048828" xlink:href="#H"/><use x="787.214844" xlink:href="#E"/><use x="850.691406" xlink:href="#r"/><use x="912.214844" xlink:href="#p"/></g><path d="m240.311 346.669h20.16" fill="none" stroke="#00bfbf" stroke-linecap="square" stroke-width="2"/><g transform="matrix(.144 0 0 -.144 276.31125 351.70875)"><use xlink:href="#G"/><use x="93.001953" xlink:href="#r"/><use x="154.525391" xlink:href="#w"/><use x="206.625" xlink:href="#t"/><use x="277.621094" xlink:href="#F"/><use x="342.404297" xlink:href="#B"/><use x="377.609375" xlink:href="#v"/><use x="418.722656" xlink:href="#q"/><use x="446.505859" xlink:href="#C"/><use x="501.486328" xlink:href="#p"/></g><path d="m240.311 367.805h20.16" fill="none" stroke="#bf00bf" stroke-linecap="square" stroke-width="2"/><g transform="matrix(.144 0 0 -.144 276.31125 372.84525)"><path d="m64.4062 67.2812v-10.3906q-4.9843 4.6406-10.625 6.9219-5.6406 2.2969-11.9843 2.2969-12.5 0-19.1407-7.6406-6.6406-7.6407-6.6406-22.0938 0-14.4062 6.6406-22.0469 6.6407-7.6406 19.1407-7.6406 6.3437 0 11.9843 2.29688 5.6407 2.29682 10.625 6.93752v-10.31252q-5.1718-3.51563-10.9687-5.281255-5.7813-1.750005-12.2187-1.750005-16.5626 0-26.0938 10.125-9.51562 10.14068-9.51562 27.67188 0 17.5781 9.51562 27.7031 9.5312 10.1407 26.0938 10.1407 6.5312 0 12.3124-1.7344 5.7969-1.7344 10.875-5.2032"/><use x="69.824219" xlink:href="#r"/><use x="131.347656" xlink:href="#n"/><use x="194.726563" xlink:href="#t"/><use x="233.935547" xlink:href="#v"/><use x="275.048828" xlink:href="#p"/><use x="336.328125" xlink:href="#A"/><use x="395.898438" xlink:href="#p"/><use x="457.177734" xlink:href="#n"/><use x="520.556641" xlink:href="#s"/><use x="615.820313" xlink:href="#E"/><use x="679.296875" xlink:href="#o"/><use x="740.478516" xlink:href="#u"/><use x="803.857422" xlink:href="#t"/><use x="843.066406" xlink:href="#H"/><use x="906.445313" xlink:href="#r"/><use x="967.96875" xlink:href="#v"/><use x="1007.332031" xlink:href="#n"/><use x="1102.498047" xlink:href="#D"/><use x="1177.302734" xlink:href="#o"/><use x="1238.484375" xlink:href="#v"/><use x="1279.597656" xlink:href="#t"/><use x="1318.806641" xlink:href="#H"/><use x="1413.972656" xlink:href="#E"/><use x="1477.449219" xlink:href="#r"/><use x="1538.972656" xlink:href="#p"/></g></g></g></g></svg>