<?xml version="1.0" encoding="utf-8" standalone="no"?>
<!DOCTYPE svg PUBLIC "-//W3C//DTD SVG 1.1//EN"
  "http://www.w3.org/Graphics/SVG/1.1/DTD/svg11.dtd">
<!-- Created with matplotlib (https://matplotlib.org/) -->
<svg height="345.6pt" version="1.1" viewBox="0 0 460.8 345.6" width="460.8pt" xmlns="http://www.w3.org/2000/svg" xmlns:xlink="http://www.w3.org/1999/xlink">
 <metadata>
  <rdf:RDF xmlns:cc="http://creativecommons.org/ns#" xmlns:dc="http://purl.org/dc/elements/1.1/" xmlns:rdf="http://www.w3.org/1999/02/22-rdf-syntax-ns#">
   <cc:Work>
    <dc:type rdf:resource="http://purl.org/dc/dcmitype/StillImage"/>
    <dc:date>2021-01-29T20:08:16.671270</dc:date>
    <dc:format>image/svg+xml</dc:format>
    <dc:creator>
     <cc:Agent>
      <dc:title>Matplotlib v3.3.3, https://matplotlib.org/</dc:title>
     </cc:Agent>
    </dc:creator>
   </cc:Work>
  </rdf:RDF>
 </metadata>
 <defs>
  <style type="text/css">*{stroke-linecap:butt;stroke-linejoin:round;}</style>
 </defs>
 <g id="figure_1">
  <g id="patch_1">
   <path d="M 0 345.6 
L 460.8 345.6 
L 460.8 0 
L 0 0 
z
" style="fill:#ffffff;"/>
  </g>
  <g id="axes_1">
   <g id="patch_2">
    <path d="M 57.6 307.584 
L 414.72 307.584 
L 414.72 41.472 
L 57.6 41.472 
z
" style="fill:#ffffff;"/>
   </g>
   <g id="patch_3">
    <path clip-path="url(#p32eea11f36)" d="M 57.6 247.104214 
L 57.6 77.760027 
L 414.72 77.760027 
L 414.72 247.104214 
z
" style="fill:#ff0000;opacity:0.18;"/>
   </g>
   <g id="patch_4">
    <path clip-path="url(#p32eea11f36)" d="M 57.6 150.336107 
L 57.6 53.568 
L 414.72 53.568 
L 414.72 150.336107 
z
" style="fill:#ffa500;opacity:0.18;"/>
   </g>
   <g id="matplotlib.axis_1">
    <g id="xtick_1">
     <g id="line2d_1">
      <path clip-path="url(#p32eea11f36)" d="M 73.017012 307.584 
L 73.017012 41.472 
" style="fill:none;stroke:#b0b0b0;stroke-linecap:square;stroke-width:0.8;"/>
     </g>
     <g id="line2d_2">
      <defs>
       <path d="M 0 0 
L 0 3.5 
" id="m2bde7d9ec5" style="stroke:#000000;stroke-width:0.8;"/>
      </defs>
      <g>
       <use style="stroke:#000000;stroke-width:0.8;" x="73.017012" xlink:href="#m2bde7d9ec5" y="307.584"/>
      </g>
     </g>
     <g id="text_1">
      <!-- 0 -->
      <g transform="translate(69.835762 322.182437)scale(0.1 -0.1)">
       <defs>
        <path d="M 31.78125 66.40625 
Q 24.171875 66.40625 20.328125 58.90625 
Q 16.5 51.421875 16.5 36.375 
Q 16.5 21.390625 20.328125 13.890625 
Q 24.171875 6.390625 31.78125 6.390625 
Q 39.453125 6.390625 43.28125 13.890625 
Q 47.125 21.390625 47.125 36.375 
Q 47.125 51.421875 43.28125 58.90625 
Q 39.453125 66.40625 31.78125 66.40625 
z
M 31.78125 74.21875 
Q 44.046875 74.21875 50.515625 64.515625 
Q 56.984375 54.828125 56.984375 36.375 
Q 56.984375 17.96875 50.515625 8.265625 
Q 44.046875 -1.421875 31.78125 -1.421875 
Q 19.53125 -1.421875 13.0625 8.265625 
Q 6.59375 17.96875 6.59375 36.375 
Q 6.59375 54.828125 13.0625 64.515625 
Q 19.53125 74.21875 31.78125 74.21875 
z
" id="DejaVuSans-48"/>
       </defs>
       <use xlink:href="#DejaVuSans-48"/>
      </g>
     </g>
    </g>
    <g id="xtick_2">
     <g id="line2d_3">
      <path clip-path="url(#p32eea11f36)" d="M 113.802759 307.584 
L 113.802759 41.472 
" style="fill:none;stroke:#b0b0b0;stroke-linecap:square;stroke-width:0.8;"/>
     </g>
     <g id="line2d_4">
      <g>
       <use style="stroke:#000000;stroke-width:0.8;" x="113.802759" xlink:href="#m2bde7d9ec5" y="307.584"/>
      </g>
     </g>
     <g id="text_2">
      <!-- 5 -->
      <g transform="translate(110.621509 322.182437)scale(0.1 -0.1)">
       <defs>
        <path d="M 10.796875 72.90625 
L 49.515625 72.90625 
L 49.515625 64.59375 
L 19.828125 64.59375 
L 19.828125 46.734375 
Q 21.96875 47.46875 24.109375 47.828125 
Q 26.265625 48.1875 28.421875 48.1875 
Q 40.625 48.1875 47.75 41.5 
Q 54.890625 34.8125 54.890625 23.390625 
Q 54.890625 11.625 47.5625 5.09375 
Q 40.234375 -1.421875 26.90625 -1.421875 
Q 22.3125 -1.421875 17.546875 -0.640625 
Q 12.796875 0.140625 7.71875 1.703125 
L 7.71875 11.625 
Q 12.109375 9.234375 16.796875 8.0625 
Q 21.484375 6.890625 26.703125 6.890625 
Q 35.15625 6.890625 40.078125 11.328125 
Q 45.015625 15.765625 45.015625 23.390625 
Q 45.015625 31 40.078125 35.4375 
Q 35.15625 39.890625 26.703125 39.890625 
Q 22.75 39.890625 18.8125 39.015625 
Q 14.890625 38.140625 10.796875 36.28125 
z
" id="DejaVuSans-53"/>
       </defs>
       <use xlink:href="#DejaVuSans-53"/>
      </g>
     </g>
    </g>
    <g id="xtick_3">
     <g id="line2d_5">
      <path clip-path="url(#p32eea11f36)" d="M 154.588506 307.584 
L 154.588506 41.472 
" style="fill:none;stroke:#b0b0b0;stroke-linecap:square;stroke-width:0.8;"/>
     </g>
     <g id="line2d_6">
      <g>
       <use style="stroke:#000000;stroke-width:0.8;" x="154.588506" xlink:href="#m2bde7d9ec5" y="307.584"/>
      </g>
     </g>
     <g id="text_3">
      <!-- 10 -->
      <g transform="translate(148.226006 322.182437)scale(0.1 -0.1)">
       <defs>
        <path d="M 12.40625 8.296875 
L 28.515625 8.296875 
L 28.515625 63.921875 
L 10.984375 60.40625 
L 10.984375 69.390625 
L 28.421875 72.90625 
L 38.28125 72.90625 
L 38.28125 8.296875 
L 54.390625 8.296875 
L 54.390625 0 
L 12.40625 0 
z
" id="DejaVuSans-49"/>
       </defs>
       <use xlink:href="#DejaVuSans-49"/>
       <use x="63.623047" xlink:href="#DejaVuSans-48"/>
      </g>
     </g>
    </g>
    <g id="xtick_4">
     <g id="line2d_7">
      <path clip-path="url(#p32eea11f36)" d="M 195.374253 307.584 
L 195.374253 41.472 
" style="fill:none;stroke:#b0b0b0;stroke-linecap:square;stroke-width:0.8;"/>
     </g>
     <g id="line2d_8">
      <g>
       <use style="stroke:#000000;stroke-width:0.8;" x="195.374253" xlink:href="#m2bde7d9ec5" y="307.584"/>
      </g>
     </g>
     <g id="text_4">
      <!-- 15 -->
      <g transform="translate(189.011753 322.182437)scale(0.1 -0.1)">
       <use xlink:href="#DejaVuSans-49"/>
       <use x="63.623047" xlink:href="#DejaVuSans-53"/>
      </g>
     </g>
    </g>
    <g id="xtick_5">
     <g id="line2d_9">
      <path clip-path="url(#p32eea11f36)" d="M 236.16 307.584 
L 236.16 41.472 
" style="fill:none;stroke:#b0b0b0;stroke-linecap:square;stroke-width:0.8;"/>
     </g>
     <g id="line2d_10">
      <g>
       <use style="stroke:#000000;stroke-width:0.8;" x="236.16" xlink:href="#m2bde7d9ec5" y="307.584"/>
      </g>
     </g>
     <g id="text_5">
      <!-- 20 -->
      <g transform="translate(229.7975 322.182437)scale(0.1 -0.1)">
       <defs>
        <path d="M 19.1875 8.296875 
L 53.609375 8.296875 
L 53.609375 0 
L 7.328125 0 
L 7.328125 8.296875 
Q 12.9375 14.109375 22.625 23.890625 
Q 32.328125 33.6875 34.8125 36.53125 
Q 39.546875 41.84375 41.421875 45.53125 
Q 43.3125 49.21875 43.3125 52.78125 
Q 43.3125 58.59375 39.234375 62.25 
Q 35.15625 65.921875 28.609375 65.921875 
Q 23.96875 65.921875 18.8125 64.3125 
Q 13.671875 62.703125 7.8125 59.421875 
L 7.8125 69.390625 
Q 13.765625 71.78125 18.9375 73 
Q 24.125 74.21875 28.421875 74.21875 
Q 39.75 74.21875 46.484375 68.546875 
Q 53.21875 62.890625 53.21875 53.421875 
Q 53.21875 48.921875 51.53125 44.890625 
Q 49.859375 40.875 45.40625 35.40625 
Q 44.1875 33.984375 37.640625 27.21875 
Q 31.109375 20.453125 19.1875 8.296875 
z
" id="DejaVuSans-50"/>
       </defs>
       <use xlink:href="#DejaVuSans-50"/>
       <use x="63.623047" xlink:href="#DejaVuSans-48"/>
      </g>
     </g>
    </g>
    <g id="xtick_6">
     <g id="line2d_11">
      <path clip-path="url(#p32eea11f36)" d="M 276.945747 307.584 
L 276.945747 41.472 
" style="fill:none;stroke:#b0b0b0;stroke-linecap:square;stroke-width:0.8;"/>
     </g>
     <g id="line2d_12">
      <g>
       <use style="stroke:#000000;stroke-width:0.8;" x="276.945747" xlink:href="#m2bde7d9ec5" y="307.584"/>
      </g>
     </g>
     <g id="text_6">
      <!-- 25 -->
      <g transform="translate(270.583247 322.182437)scale(0.1 -0.1)">
       <use xlink:href="#DejaVuSans-50"/>
       <use x="63.623047" xlink:href="#DejaVuSans-53"/>
      </g>
     </g>
    </g>
    <g id="xtick_7">
     <g id="line2d_13">
      <path clip-path="url(#p32eea11f36)" d="M 317.731494 307.584 
L 317.731494 41.472 
" style="fill:none;stroke:#b0b0b0;stroke-linecap:square;stroke-width:0.8;"/>
     </g>
     <g id="line2d_14">
      <g>
       <use style="stroke:#000000;stroke-width:0.8;" x="317.731494" xlink:href="#m2bde7d9ec5" y="307.584"/>
      </g>
     </g>
     <g id="text_7">
      <!-- 30 -->
      <g transform="translate(311.368994 322.182437)scale(0.1 -0.1)">
       <defs>
        <path d="M 40.578125 39.3125 
Q 47.65625 37.796875 51.625 33 
Q 55.609375 28.21875 55.609375 21.1875 
Q 55.609375 10.40625 48.1875 4.484375 
Q 40.765625 -1.421875 27.09375 -1.421875 
Q 22.515625 -1.421875 17.65625 -0.515625 
Q 12.796875 0.390625 7.625 2.203125 
L 7.625 11.71875 
Q 11.71875 9.328125 16.59375 8.109375 
Q 21.484375 6.890625 26.8125 6.890625 
Q 36.078125 6.890625 40.9375 10.546875 
Q 45.796875 14.203125 45.796875 21.1875 
Q 45.796875 27.640625 41.28125 31.265625 
Q 36.765625 34.90625 28.71875 34.90625 
L 20.21875 34.90625 
L 20.21875 43.015625 
L 29.109375 43.015625 
Q 36.375 43.015625 40.234375 45.921875 
Q 44.09375 48.828125 44.09375 54.296875 
Q 44.09375 59.90625 40.109375 62.90625 
Q 36.140625 65.921875 28.71875 65.921875 
Q 24.65625 65.921875 20.015625 65.03125 
Q 15.375 64.15625 9.8125 62.3125 
L 9.8125 71.09375 
Q 15.4375 72.65625 20.34375 73.4375 
Q 25.25 74.21875 29.59375 74.21875 
Q 40.828125 74.21875 47.359375 69.109375 
Q 53.90625 64.015625 53.90625 55.328125 
Q 53.90625 49.265625 50.4375 45.09375 
Q 46.96875 40.921875 40.578125 39.3125 
z
" id="DejaVuSans-51"/>
       </defs>
       <use xlink:href="#DejaVuSans-51"/>
       <use x="63.623047" xlink:href="#DejaVuSans-48"/>
      </g>
     </g>
    </g>
    <g id="xtick_8">
     <g id="line2d_15">
      <path clip-path="url(#p32eea11f36)" d="M 358.517241 307.584 
L 358.517241 41.472 
" style="fill:none;stroke:#b0b0b0;stroke-linecap:square;stroke-width:0.8;"/>
     </g>
     <g id="line2d_16">
      <g>
       <use style="stroke:#000000;stroke-width:0.8;" x="358.517241" xlink:href="#m2bde7d9ec5" y="307.584"/>
      </g>
     </g>
     <g id="text_8">
      <!-- 35 -->
      <g transform="translate(352.154741 322.182437)scale(0.1 -0.1)">
       <use xlink:href="#DejaVuSans-51"/>
       <use x="63.623047" xlink:href="#DejaVuSans-53"/>
      </g>
     </g>
    </g>
    <g id="xtick_9">
     <g id="line2d_17">
      <path clip-path="url(#p32eea11f36)" d="M 399.302988 307.584 
L 399.302988 41.472 
" style="fill:none;stroke:#b0b0b0;stroke-linecap:square;stroke-width:0.8;"/>
     </g>
     <g id="line2d_18">
      <g>
       <use style="stroke:#000000;stroke-width:0.8;" x="399.302988" xlink:href="#m2bde7d9ec5" y="307.584"/>
      </g>
     </g>
     <g id="text_9">
      <!-- 40 -->
      <g transform="translate(392.940488 322.182437)scale(0.1 -0.1)">
       <defs>
        <path d="M 37.796875 64.3125 
L 12.890625 25.390625 
L 37.796875 25.390625 
z
M 35.203125 72.90625 
L 47.609375 72.90625 
L 47.609375 25.390625 
L 58.015625 25.390625 
L 58.015625 17.1875 
L 47.609375 17.1875 
L 47.609375 0 
L 37.796875 0 
L 37.796875 17.1875 
L 4.890625 17.1875 
L 4.890625 26.703125 
z
" id="DejaVuSans-52"/>
       </defs>
       <use xlink:href="#DejaVuSans-52"/>
       <use x="63.623047" xlink:href="#DejaVuSans-48"/>
      </g>
     </g>
    </g>
    <g id="text_10">
     <!-- Length of pipe, L (m) -->
     <g transform="translate(183.776406 335.860562)scale(0.1 -0.1)">
      <defs>
       <path d="M 9.8125 72.90625 
L 19.671875 72.90625 
L 19.671875 8.296875 
L 55.171875 8.296875 
L 55.171875 0 
L 9.8125 0 
z
" id="DejaVuSans-76"/>
       <path d="M 56.203125 29.59375 
L 56.203125 25.203125 
L 14.890625 25.203125 
Q 15.484375 15.921875 20.484375 11.0625 
Q 25.484375 6.203125 34.421875 6.203125 
Q 39.59375 6.203125 44.453125 7.46875 
Q 49.3125 8.734375 54.109375 11.28125 
L 54.109375 2.78125 
Q 49.265625 0.734375 44.1875 -0.34375 
Q 39.109375 -1.421875 33.890625 -1.421875 
Q 20.796875 -1.421875 13.15625 6.1875 
Q 5.515625 13.8125 5.515625 26.8125 
Q 5.515625 40.234375 12.765625 48.109375 
Q 20.015625 56 32.328125 56 
Q 43.359375 56 49.78125 48.890625 
Q 56.203125 41.796875 56.203125 29.59375 
z
M 47.21875 32.234375 
Q 47.125 39.59375 43.09375 43.984375 
Q 39.0625 48.390625 32.421875 48.390625 
Q 24.90625 48.390625 20.390625 44.140625 
Q 15.875 39.890625 15.1875 32.171875 
z
" id="DejaVuSans-101"/>
       <path d="M 54.890625 33.015625 
L 54.890625 0 
L 45.90625 0 
L 45.90625 32.71875 
Q 45.90625 40.484375 42.875 44.328125 
Q 39.84375 48.1875 33.796875 48.1875 
Q 26.515625 48.1875 22.3125 43.546875 
Q 18.109375 38.921875 18.109375 30.90625 
L 18.109375 0 
L 9.078125 0 
L 9.078125 54.6875 
L 18.109375 54.6875 
L 18.109375 46.1875 
Q 21.34375 51.125 25.703125 53.5625 
Q 30.078125 56 35.796875 56 
Q 45.21875 56 50.046875 50.171875 
Q 54.890625 44.34375 54.890625 33.015625 
z
" id="DejaVuSans-110"/>
       <path d="M 45.40625 27.984375 
Q 45.40625 37.75 41.375 43.109375 
Q 37.359375 48.484375 30.078125 48.484375 
Q 22.859375 48.484375 18.828125 43.109375 
Q 14.796875 37.75 14.796875 27.984375 
Q 14.796875 18.265625 18.828125 12.890625 
Q 22.859375 7.515625 30.078125 7.515625 
Q 37.359375 7.515625 41.375 12.890625 
Q 45.40625 18.265625 45.40625 27.984375 
z
M 54.390625 6.78125 
Q 54.390625 -7.171875 48.1875 -13.984375 
Q 42 -20.796875 29.203125 -20.796875 
Q 24.46875 -20.796875 20.265625 -20.09375 
Q 16.0625 -19.390625 12.109375 -17.921875 
L 12.109375 -9.1875 
Q 16.0625 -11.328125 19.921875 -12.34375 
Q 23.78125 -13.375 27.78125 -13.375 
Q 36.625 -13.375 41.015625 -8.765625 
Q 45.40625 -4.15625 45.40625 5.171875 
L 45.40625 9.625 
Q 42.625 4.78125 38.28125 2.390625 
Q 33.9375 0 27.875 0 
Q 17.828125 0 11.671875 7.65625 
Q 5.515625 15.328125 5.515625 27.984375 
Q 5.515625 40.671875 11.671875 48.328125 
Q 17.828125 56 27.875 56 
Q 33.9375 56 38.28125 53.609375 
Q 42.625 51.21875 45.40625 46.390625 
L 45.40625 54.6875 
L 54.390625 54.6875 
z
" id="DejaVuSans-103"/>
       <path d="M 18.3125 70.21875 
L 18.3125 54.6875 
L 36.8125 54.6875 
L 36.8125 47.703125 
L 18.3125 47.703125 
L 18.3125 18.015625 
Q 18.3125 11.328125 20.140625 9.421875 
Q 21.96875 7.515625 27.59375 7.515625 
L 36.8125 7.515625 
L 36.8125 0 
L 27.59375 0 
Q 17.1875 0 13.234375 3.875 
Q 9.28125 7.765625 9.28125 18.015625 
L 9.28125 47.703125 
L 2.6875 47.703125 
L 2.6875 54.6875 
L 9.28125 54.6875 
L 9.28125 70.21875 
z
" id="DejaVuSans-116"/>
       <path d="M 54.890625 33.015625 
L 54.890625 0 
L 45.90625 0 
L 45.90625 32.71875 
Q 45.90625 40.484375 42.875 44.328125 
Q 39.84375 48.1875 33.796875 48.1875 
Q 26.515625 48.1875 22.3125 43.546875 
Q 18.109375 38.921875 18.109375 30.90625 
L 18.109375 0 
L 9.078125 0 
L 9.078125 75.984375 
L 18.109375 75.984375 
L 18.109375 46.1875 
Q 21.34375 51.125 25.703125 53.5625 
Q 30.078125 56 35.796875 56 
Q 45.21875 56 50.046875 50.171875 
Q 54.890625 44.34375 54.890625 33.015625 
z
" id="DejaVuSans-104"/>
       <path id="DejaVuSans-32"/>
       <path d="M 30.609375 48.390625 
Q 23.390625 48.390625 19.1875 42.75 
Q 14.984375 37.109375 14.984375 27.296875 
Q 14.984375 17.484375 19.15625 11.84375 
Q 23.34375 6.203125 30.609375 6.203125 
Q 37.796875 6.203125 41.984375 11.859375 
Q 46.1875 17.53125 46.1875 27.296875 
Q 46.1875 37.015625 41.984375 42.703125 
Q 37.796875 48.390625 30.609375 48.390625 
z
M 30.609375 56 
Q 42.328125 56 49.015625 48.375 
Q 55.71875 40.765625 55.71875 27.296875 
Q 55.71875 13.875 49.015625 6.21875 
Q 42.328125 -1.421875 30.609375 -1.421875 
Q 18.84375 -1.421875 12.171875 6.21875 
Q 5.515625 13.875 5.515625 27.296875 
Q 5.515625 40.765625 12.171875 48.375 
Q 18.84375 56 30.609375 56 
z
" id="DejaVuSans-111"/>
       <path d="M 37.109375 75.984375 
L 37.109375 68.5 
L 28.515625 68.5 
Q 23.6875 68.5 21.796875 66.546875 
Q 19.921875 64.59375 19.921875 59.515625 
L 19.921875 54.6875 
L 34.71875 54.6875 
L 34.71875 47.703125 
L 19.921875 47.703125 
L 19.921875 0 
L 10.890625 0 
L 10.890625 47.703125 
L 2.296875 47.703125 
L 2.296875 54.6875 
L 10.890625 54.6875 
L 10.890625 58.5 
Q 10.890625 67.625 15.140625 71.796875 
Q 19.390625 75.984375 28.609375 75.984375 
z
" id="DejaVuSans-102"/>
       <path d="M 18.109375 8.203125 
L 18.109375 -20.796875 
L 9.078125 -20.796875 
L 9.078125 54.6875 
L 18.109375 54.6875 
L 18.109375 46.390625 
Q 20.953125 51.265625 25.265625 53.625 
Q 29.59375 56 35.59375 56 
Q 45.5625 56 51.78125 48.09375 
Q 58.015625 40.1875 58.015625 27.296875 
Q 58.015625 14.40625 51.78125 6.484375 
Q 45.5625 -1.421875 35.59375 -1.421875 
Q 29.59375 -1.421875 25.265625 0.953125 
Q 20.953125 3.328125 18.109375 8.203125 
z
M 48.6875 27.296875 
Q 48.6875 37.203125 44.609375 42.84375 
Q 40.53125 48.484375 33.40625 48.484375 
Q 26.265625 48.484375 22.1875 42.84375 
Q 18.109375 37.203125 18.109375 27.296875 
Q 18.109375 17.390625 22.1875 11.75 
Q 26.265625 6.109375 33.40625 6.109375 
Q 40.53125 6.109375 44.609375 11.75 
Q 48.6875 17.390625 48.6875 27.296875 
z
" id="DejaVuSans-112"/>
       <path d="M 9.421875 54.6875 
L 18.40625 54.6875 
L 18.40625 0 
L 9.421875 0 
z
M 9.421875 75.984375 
L 18.40625 75.984375 
L 18.40625 64.59375 
L 9.421875 64.59375 
z
" id="DejaVuSans-105"/>
       <path d="M 11.71875 12.40625 
L 22.015625 12.40625 
L 22.015625 4 
L 14.015625 -11.625 
L 7.71875 -11.625 
L 11.71875 4 
z
" id="DejaVuSans-44"/>
       <path d="M 31 75.875 
Q 24.46875 64.65625 21.28125 53.65625 
Q 18.109375 42.671875 18.109375 31.390625 
Q 18.109375 20.125 21.3125 9.0625 
Q 24.515625 -2 31 -13.1875 
L 23.1875 -13.1875 
Q 15.875 -1.703125 12.234375 9.375 
Q 8.59375 20.453125 8.59375 31.390625 
Q 8.59375 42.28125 12.203125 53.3125 
Q 15.828125 64.359375 23.1875 75.875 
z
" id="DejaVuSans-40"/>
       <path d="M 52 44.1875 
Q 55.375 50.25 60.0625 53.125 
Q 64.75 56 71.09375 56 
Q 79.640625 56 84.28125 50.015625 
Q 88.921875 44.046875 88.921875 33.015625 
L 88.921875 0 
L 79.890625 0 
L 79.890625 32.71875 
Q 79.890625 40.578125 77.09375 44.375 
Q 74.3125 48.1875 68.609375 48.1875 
Q 61.625 48.1875 57.5625 43.546875 
Q 53.515625 38.921875 53.515625 30.90625 
L 53.515625 0 
L 44.484375 0 
L 44.484375 32.71875 
Q 44.484375 40.625 41.703125 44.40625 
Q 38.921875 48.1875 33.109375 48.1875 
Q 26.21875 48.1875 22.15625 43.53125 
Q 18.109375 38.875 18.109375 30.90625 
L 18.109375 0 
L 9.078125 0 
L 9.078125 54.6875 
L 18.109375 54.6875 
L 18.109375 46.1875 
Q 21.1875 51.21875 25.484375 53.609375 
Q 29.78125 56 35.6875 56 
Q 41.65625 56 45.828125 52.96875 
Q 50 49.953125 52 44.1875 
z
" id="DejaVuSans-109"/>
       <path d="M 8.015625 75.875 
L 15.828125 75.875 
Q 23.140625 64.359375 26.78125 53.3125 
Q 30.421875 42.28125 30.421875 31.390625 
Q 30.421875 20.453125 26.78125 9.375 
Q 23.140625 -1.703125 15.828125 -13.1875 
L 8.015625 -13.1875 
Q 14.5 -2 17.703125 9.0625 
Q 20.90625 20.125 20.90625 31.390625 
Q 20.90625 42.671875 17.703125 53.65625 
Q 14.5 64.65625 8.015625 75.875 
z
" id="DejaVuSans-41"/>
      </defs>
      <use xlink:href="#DejaVuSans-76"/>
      <use x="53.962891" xlink:href="#DejaVuSans-101"/>
      <use x="115.486328" xlink:href="#DejaVuSans-110"/>
      <use x="178.865234" xlink:href="#DejaVuSans-103"/>
      <use x="242.341797" xlink:href="#DejaVuSans-116"/>
      <use x="281.550781" xlink:href="#DejaVuSans-104"/>
      <use x="344.929688" xlink:href="#DejaVuSans-32"/>
      <use x="376.716797" xlink:href="#DejaVuSans-111"/>
      <use x="437.898438" xlink:href="#DejaVuSans-102"/>
      <use x="473.103516" xlink:href="#DejaVuSans-32"/>
      <use x="504.890625" xlink:href="#DejaVuSans-112"/>
      <use x="568.367188" xlink:href="#DejaVuSans-105"/>
      <use x="596.150391" xlink:href="#DejaVuSans-112"/>
      <use x="659.626953" xlink:href="#DejaVuSans-101"/>
      <use x="721.150391" xlink:href="#DejaVuSans-44"/>
      <use x="752.9375" xlink:href="#DejaVuSans-32"/>
      <use x="784.724609" xlink:href="#DejaVuSans-76"/>
      <use x="840.4375" xlink:href="#DejaVuSans-32"/>
      <use x="872.224609" xlink:href="#DejaVuSans-40"/>
      <use x="911.238281" xlink:href="#DejaVuSans-109"/>
      <use x="1008.650391" xlink:href="#DejaVuSans-41"/>
     </g>
    </g>
   </g>
   <g id="matplotlib.axis_2">
    <g id="ytick_1">
     <g id="line2d_19">
      <path clip-path="url(#p32eea11f36)" d="M 57.6 295.488268 
L 414.72 295.488268 
" style="fill:none;stroke:#b0b0b0;stroke-linecap:square;stroke-width:0.8;"/>
     </g>
     <g id="line2d_20">
      <defs>
       <path d="M 0 0 
L -3.5 0 
" id="m843ac25b64" style="stroke:#000000;stroke-width:0.8;"/>
      </defs>
      <g>
       <use style="stroke:#000000;stroke-width:0.8;" x="57.6" xlink:href="#m843ac25b64" y="295.488268"/>
      </g>
     </g>
     <g id="text_11">
      <!-- 0 -->
      <g transform="translate(44.2375 299.287486)scale(0.1 -0.1)">
       <use xlink:href="#DejaVuSans-48"/>
      </g>
     </g>
    </g>
    <g id="ytick_2">
     <g id="line2d_21">
      <path clip-path="url(#p32eea11f36)" d="M 57.6 247.104214 
L 414.72 247.104214 
" style="fill:none;stroke:#b0b0b0;stroke-linecap:square;stroke-width:0.8;"/>
     </g>
     <g id="line2d_22">
      <g>
       <use style="stroke:#000000;stroke-width:0.8;" x="57.6" xlink:href="#m843ac25b64" y="247.104214"/>
      </g>
     </g>
     <g id="text_12">
      <!-- 1 -->
      <g transform="translate(44.2375 250.903433)scale(0.1 -0.1)">
       <use xlink:href="#DejaVuSans-49"/>
      </g>
     </g>
    </g>
    <g id="ytick_3">
     <g id="line2d_23">
      <path clip-path="url(#p32eea11f36)" d="M 57.6 198.720161 
L 414.72 198.720161 
" style="fill:none;stroke:#b0b0b0;stroke-linecap:square;stroke-width:0.8;"/>
     </g>
     <g id="line2d_24">
      <g>
       <use style="stroke:#000000;stroke-width:0.8;" x="57.6" xlink:href="#m843ac25b64" y="198.720161"/>
      </g>
     </g>
     <g id="text_13">
      <!-- 2 -->
      <g transform="translate(44.2375 202.519379)scale(0.1 -0.1)">
       <use xlink:href="#DejaVuSans-50"/>
      </g>
     </g>
    </g>
    <g id="ytick_4">
     <g id="line2d_25">
      <path clip-path="url(#p32eea11f36)" d="M 57.6 150.336107 
L 414.72 150.336107 
" style="fill:none;stroke:#b0b0b0;stroke-linecap:square;stroke-width:0.8;"/>
     </g>
     <g id="line2d_26">
      <g>
       <use style="stroke:#000000;stroke-width:0.8;" x="57.6" xlink:href="#m843ac25b64" y="150.336107"/>
      </g>
     </g>
     <g id="text_14">
      <!-- 3 -->
      <g transform="translate(44.2375 154.135326)scale(0.1 -0.1)">
       <use xlink:href="#DejaVuSans-51"/>
      </g>
     </g>
    </g>
    <g id="ytick_5">
     <g id="line2d_27">
      <path clip-path="url(#p32eea11f36)" d="M 57.6 101.952054 
L 414.72 101.952054 
" style="fill:none;stroke:#b0b0b0;stroke-linecap:square;stroke-width:0.8;"/>
     </g>
     <g id="line2d_28">
      <g>
       <use style="stroke:#000000;stroke-width:0.8;" x="57.6" xlink:href="#m843ac25b64" y="101.952054"/>
      </g>
     </g>
     <g id="text_15">
      <!-- 4 -->
      <g transform="translate(44.2375 105.751272)scale(0.1 -0.1)">
       <use xlink:href="#DejaVuSans-52"/>
      </g>
     </g>
    </g>
    <g id="ytick_6">
     <g id="line2d_29">
      <path clip-path="url(#p32eea11f36)" d="M 57.6 53.568 
L 414.72 53.568 
" style="fill:none;stroke:#b0b0b0;stroke-linecap:square;stroke-width:0.8;"/>
     </g>
     <g id="line2d_30">
      <g>
       <use style="stroke:#000000;stroke-width:0.8;" x="57.6" xlink:href="#m843ac25b64" y="53.568"/>
      </g>
     </g>
     <g id="text_16">
      <!-- 5 -->
      <g transform="translate(44.2375 57.367219)scale(0.1 -0.1)">
       <use xlink:href="#DejaVuSans-53"/>
      </g>
     </g>
    </g>
    <g id="text_17">
     <!-- Reduced velocity, $v_r$ -->
     <g transform="translate(38.1375 225.278)rotate(-90)scale(0.1 -0.1)">
      <defs>
       <path d="M 44.390625 34.1875 
Q 47.5625 33.109375 50.5625 29.59375 
Q 53.5625 26.078125 56.59375 19.921875 
L 66.609375 0 
L 56 0 
L 46.6875 18.703125 
Q 43.0625 26.03125 39.671875 28.421875 
Q 36.28125 30.8125 30.421875 30.8125 
L 19.671875 30.8125 
L 19.671875 0 
L 9.8125 0 
L 9.8125 72.90625 
L 32.078125 72.90625 
Q 44.578125 72.90625 50.734375 67.671875 
Q 56.890625 62.453125 56.890625 51.90625 
Q 56.890625 45.015625 53.6875 40.46875 
Q 50.484375 35.9375 44.390625 34.1875 
z
M 19.671875 64.796875 
L 19.671875 38.921875 
L 32.078125 38.921875 
Q 39.203125 38.921875 42.84375 42.21875 
Q 46.484375 45.515625 46.484375 51.90625 
Q 46.484375 58.296875 42.84375 61.546875 
Q 39.203125 64.796875 32.078125 64.796875 
z
" id="DejaVuSans-82"/>
       <path d="M 45.40625 46.390625 
L 45.40625 75.984375 
L 54.390625 75.984375 
L 54.390625 0 
L 45.40625 0 
L 45.40625 8.203125 
Q 42.578125 3.328125 38.25 0.953125 
Q 33.9375 -1.421875 27.875 -1.421875 
Q 17.96875 -1.421875 11.734375 6.484375 
Q 5.515625 14.40625 5.515625 27.296875 
Q 5.515625 40.1875 11.734375 48.09375 
Q 17.96875 56 27.875 56 
Q 33.9375 56 38.25 53.625 
Q 42.578125 51.265625 45.40625 46.390625 
z
M 14.796875 27.296875 
Q 14.796875 17.390625 18.875 11.75 
Q 22.953125 6.109375 30.078125 6.109375 
Q 37.203125 6.109375 41.296875 11.75 
Q 45.40625 17.390625 45.40625 27.296875 
Q 45.40625 37.203125 41.296875 42.84375 
Q 37.203125 48.484375 30.078125 48.484375 
Q 22.953125 48.484375 18.875 42.84375 
Q 14.796875 37.203125 14.796875 27.296875 
z
" id="DejaVuSans-100"/>
       <path d="M 8.5 21.578125 
L 8.5 54.6875 
L 17.484375 54.6875 
L 17.484375 21.921875 
Q 17.484375 14.15625 20.5 10.265625 
Q 23.53125 6.390625 29.59375 6.390625 
Q 36.859375 6.390625 41.078125 11.03125 
Q 45.3125 15.671875 45.3125 23.6875 
L 45.3125 54.6875 
L 54.296875 54.6875 
L 54.296875 0 
L 45.3125 0 
L 45.3125 8.40625 
Q 42.046875 3.421875 37.71875 1 
Q 33.40625 -1.421875 27.6875 -1.421875 
Q 18.265625 -1.421875 13.375 4.4375 
Q 8.5 10.296875 8.5 21.578125 
z
M 31.109375 56 
z
" id="DejaVuSans-117"/>
       <path d="M 48.78125 52.59375 
L 48.78125 44.1875 
Q 44.96875 46.296875 41.140625 47.34375 
Q 37.3125 48.390625 33.40625 48.390625 
Q 24.65625 48.390625 19.8125 42.84375 
Q 14.984375 37.3125 14.984375 27.296875 
Q 14.984375 17.28125 19.8125 11.734375 
Q 24.65625 6.203125 33.40625 6.203125 
Q 37.3125 6.203125 41.140625 7.25 
Q 44.96875 8.296875 48.78125 10.40625 
L 48.78125 2.09375 
Q 45.015625 0.34375 40.984375 -0.53125 
Q 36.96875 -1.421875 32.421875 -1.421875 
Q 20.0625 -1.421875 12.78125 6.34375 
Q 5.515625 14.109375 5.515625 27.296875 
Q 5.515625 40.671875 12.859375 48.328125 
Q 20.21875 56 33.015625 56 
Q 37.15625 56 41.109375 55.140625 
Q 45.0625 54.296875 48.78125 52.59375 
z
" id="DejaVuSans-99"/>
       <path d="M 2.984375 54.6875 
L 12.5 54.6875 
L 29.59375 8.796875 
L 46.6875 54.6875 
L 56.203125 54.6875 
L 35.6875 0 
L 23.484375 0 
z
" id="DejaVuSans-118"/>
       <path d="M 9.421875 75.984375 
L 18.40625 75.984375 
L 18.40625 0 
L 9.421875 0 
z
" id="DejaVuSans-108"/>
       <path d="M 32.171875 -5.078125 
Q 28.375 -14.84375 24.75 -17.8125 
Q 21.140625 -20.796875 15.09375 -20.796875 
L 7.90625 -20.796875 
L 7.90625 -13.28125 
L 13.1875 -13.28125 
Q 16.890625 -13.28125 18.9375 -11.515625 
Q 21 -9.765625 23.484375 -3.21875 
L 25.09375 0.875 
L 2.984375 54.6875 
L 12.5 54.6875 
L 29.59375 11.921875 
L 46.6875 54.6875 
L 56.203125 54.6875 
z
" id="DejaVuSans-121"/>
       <path d="M 7.171875 54.6875 
L 16.703125 54.6875 
L 24.703125 8.203125 
L 50.875 54.6875 
L 60.40625 54.6875 
L 29.296875 0 
L 17.1875 0 
z
" id="DejaVuSans-Oblique-118"/>
       <path d="M 44.578125 46.390625 
Q 43.21875 47.125 41.453125 47.515625 
Q 39.703125 47.90625 37.703125 47.90625 
Q 30.515625 47.90625 25.140625 42.453125 
Q 19.78125 37.015625 18.015625 27.875 
L 12.5 0 
L 3.515625 0 
L 14.203125 54.6875 
L 23.1875 54.6875 
L 21.484375 46.1875 
Q 25.046875 50.921875 30 53.453125 
Q 34.96875 56 40.578125 56 
Q 42.046875 56 43.453125 55.828125 
Q 44.875 55.671875 46.296875 55.28125 
z
" id="DejaVuSans-Oblique-114"/>
      </defs>
      <use transform="translate(0 0.015625)" xlink:href="#DejaVuSans-82"/>
      <use transform="translate(69.482422 0.015625)" xlink:href="#DejaVuSans-101"/>
      <use transform="translate(131.005859 0.015625)" xlink:href="#DejaVuSans-100"/>
      <use transform="translate(194.482422 0.015625)" xlink:href="#DejaVuSans-117"/>
      <use transform="translate(257.861328 0.015625)" xlink:href="#DejaVuSans-99"/>
      <use transform="translate(312.841797 0.015625)" xlink:href="#DejaVuSans-101"/>
      <use transform="translate(374.365234 0.015625)" xlink:href="#DejaVuSans-100"/>
      <use transform="translate(437.841797 0.015625)" xlink:href="#DejaVuSans-32"/>
      <use transform="translate(469.628906 0.015625)" xlink:href="#DejaVuSans-118"/>
      <use transform="translate(528.808594 0.015625)" xlink:href="#DejaVuSans-101"/>
      <use transform="translate(590.332031 0.015625)" xlink:href="#DejaVuSans-108"/>
      <use transform="translate(618.115234 0.015625)" xlink:href="#DejaVuSans-111"/>
      <use transform="translate(679.296875 0.015625)" xlink:href="#DejaVuSans-99"/>
      <use transform="translate(734.277344 0.015625)" xlink:href="#DejaVuSans-105"/>
      <use transform="translate(762.060547 0.015625)" xlink:href="#DejaVuSans-116"/>
      <use transform="translate(801.269531 0.015625)" xlink:href="#DejaVuSans-121"/>
      <use transform="translate(860.449219 0.015625)" xlink:href="#DejaVuSans-44"/>
      <use transform="translate(892.236328 0.015625)" xlink:href="#DejaVuSans-32"/>
      <use transform="translate(924.023438 0.015625)" xlink:href="#DejaVuSans-Oblique-118"/>
      <use transform="translate(983.203125 -16.390625)scale(0.7)" xlink:href="#DejaVuSans-Oblique-114"/>
     </g>
    </g>
   </g>
   <g id="line2d_31">
    <path clip-path="url(#p32eea11f36)" d="M 73.832727 295.487491 
L 83.621307 295.356956 
L 93.409886 295.002648 
L 103.198465 294.424566 
L 112.987044 293.62271 
L 122.775624 292.597081 
L 132.564203 291.347678 
L 142.352782 289.874501 
L 152.141361 288.17755 
L 161.929941 286.256826 
L 171.71852 284.112329 
L 181.507099 281.744057 
L 191.295678 279.152012 
L 201.084258 276.336193 
L 210.872837 273.296601 
L 220.661416 270.033235 
L 230.449995 266.546095 
L 240.238575 262.835181 
L 250.027154 258.900494 
L 259.815733 254.742033 
L 270.420027 249.984512 
L 281.024322 244.964367 
L 291.628616 239.681599 
L 302.23291 234.136207 
L 312.837204 228.328193 
L 323.441498 222.257555 
L 334.045793 215.924293 
L 344.650087 209.328409 
L 355.254381 202.469901 
L 365.858675 195.34877 
L 376.462969 187.965015 
L 387.067264 180.318638 
L 397.671558 172.409637 
L 398.487273 171.790374 
L 398.487273 171.790374 
" style="fill:none;stroke:#1f77b4;stroke-linecap:square;stroke-width:1.5;"/>
   </g>
   <g id="line2d_32">
    <path clip-path="url(#p32eea11f36)" d="M 73.832727 295.487634 
L 84.437021 295.364118 
L 95.041316 295.026508 
L 105.64561 294.474803 
L 116.249904 293.709003 
L 126.854198 292.729109 
L 137.458492 291.535121 
L 148.062787 290.127038 
L 158.667081 288.504861 
L 169.271375 286.668589 
L 179.875669 284.618223 
L 190.479963 282.353762 
L 201.084258 279.875207 
L 211.688552 277.182557 
L 222.292846 274.275813 
L 233.712855 270.906042 
L 245.132864 267.287972 
L 256.552873 263.421604 
L 267.972883 259.306936 
L 279.392892 254.943969 
L 290.812901 250.332704 
L 302.23291 245.473139 
L 313.652919 240.365276 
L 325.072928 235.009114 
L 336.492937 229.404653 
L 347.912947 223.551893 
L 359.332956 217.450834 
L 370.752965 211.101476 
L 382.172974 204.503819 
L 393.592983 197.657864 
L 398.487273 194.647873 
L 398.487273 194.647873 
" style="fill:none;stroke:#ff7f0e;stroke-linecap:square;stroke-width:1.5;"/>
   </g>
   <g id="line2d_33">
    <path clip-path="url(#p32eea11f36)" d="M 73.832727 295.487739 
L 86.068451 295.352937 
L 98.304175 294.98025 
L 110.539899 294.369678 
L 122.775624 293.521221 
L 135.011348 292.434878 
L 147.247072 291.11065 
L 159.482796 289.548537 
L 171.71852 287.748538 
L 183.954244 285.710654 
L 196.189968 283.434885 
L 208.425692 280.92123 
L 220.661416 278.169691 
L 232.89714 275.180266 
L 245.132864 271.952955 
L 257.368588 268.48776 
L 269.604312 264.784679 
L 281.840037 260.843713 
L 294.075761 256.664861 
L 306.311485 252.248125 
L 318.547209 247.593503 
L 330.782933 242.700996 
L 343.018657 237.570603 
L 355.254381 232.202325 
L 367.490105 226.596162 
L 379.725829 220.752114 
L 391.961553 214.67018 
L 398.487273 211.329214 
L 398.487273 211.329214 
" style="fill:none;stroke:#2ca02c;stroke-linecap:square;stroke-width:1.5;"/>
   </g>
   <g id="line2d_34">
    <path clip-path="url(#p32eea11f36)" d="M 73.832727 295.487818 
L 86.884166 295.358354 
L 99.935605 294.998732 
L 112.987044 294.408952 
L 126.038483 293.589013 
L 139.089922 292.538917 
L 152.141361 291.258662 
L 165.1928 289.74825 
L 178.244239 288.007679 
L 191.295678 286.03695 
L 204.347117 283.836063 
L 217.398556 281.405017 
L 230.449995 278.743814 
L 243.501434 275.852452 
L 256.552873 272.730933 
L 269.604312 269.379255 
L 282.655751 265.797419 
L 295.70719 261.985425 
L 308.75863 257.943272 
L 321.810069 253.670962 
L 334.861508 249.168494 
L 347.912947 244.435867 
L 360.964386 239.473082 
L 374.015825 234.280139 
L 387.067264 228.857038 
L 398.487273 223.923023 
L 398.487273 223.923023 
" style="fill:none;stroke:#d62728;stroke-linecap:square;stroke-width:1.5;"/>
   </g>
   <g id="line2d_35">
    <path clip-path="url(#p32eea11f36)" d="M 73.832727 295.487879 
L 87.699881 295.362509 
L 101.567035 295.01279 
L 115.434189 294.438723 
L 129.301343 293.640308 
L 143.168497 292.617546 
L 157.035651 291.370435 
L 170.902805 289.898977 
L 184.769959 288.20317 
L 198.637113 286.283016 
L 212.504267 284.138514 
L 226.371421 281.769664 
L 240.238575 279.176466 
L 254.105729 276.35892 
L 267.972883 273.317026 
L 281.840037 270.050784 
L 295.70719 266.560194 
L 309.574344 262.845256 
L 323.441498 258.905971 
L 337.308652 254.742337 
L 351.175806 250.354356 
L 365.04296 245.742026 
L 378.910114 240.905349 
L 392.777268 235.844324 
L 398.487273 233.695164 
L 398.487273 233.695164 
" style="fill:none;stroke:#9467bd;stroke-linecap:square;stroke-width:1.5;"/>
   </g>
   <g id="line2d_36">
    <path clip-path="url(#p32eea11f36)" d="M 73.832727 295.487928 
L 88.515596 295.365735 
L 103.198465 295.023593 
L 117.881334 294.461504 
L 132.564203 293.679466 
L 147.247072 292.67748 
L 161.929941 291.455545 
L 176.61281 290.013663 
L 191.295678 288.351833 
L 205.978547 286.470054 
L 220.661416 284.368327 
L 235.344285 282.046652 
L 250.027154 279.505029 
L 264.710023 276.743458 
L 279.392892 273.761939 
L 294.075761 270.560471 
L 308.75863 267.139056 
L 323.441498 263.497692 
L 338.124367 259.63638 
L 352.807236 255.55512 
L 367.490105 251.253912 
L 382.172974 246.732755 
L 397.671558 241.721807 
L 398.487273 241.451284 
L 398.487273 241.451284 
" style="fill:none;stroke:#8c564b;stroke-linecap:square;stroke-width:1.5;"/>
   </g>
   <g id="line2d_37">
    <path clip-path="url(#p32eea11f36)" d="M 73.832727 295.488 
L 90.147026 295.370246 
L 106.461325 295.038396 
L 122.775624 294.492448 
L 139.089922 293.732402 
L 155.404221 292.758259 
L 171.71852 291.570019 
L 188.032819 290.167682 
L 204.347117 288.551247 
L 220.661416 286.720716 
L 236.975715 284.676086 
L 253.290014 282.41736 
L 269.604312 279.944536 
L 286.734326 277.117649 
L 303.86434 274.054719 
L 320.994354 270.755747 
L 338.124367 267.220733 
L 355.254381 263.449677 
L 372.384395 259.442578 
L 389.514408 255.199438 
L 398.487273 252.882637 
L 398.487273 252.882637 
" style="fill:none;stroke:#e377c2;stroke-linecap:square;stroke-width:1.5;"/>
   </g>
   <g id="patch_5">
    <path d="M 57.6 307.584 
L 57.6 41.472 
" style="fill:none;stroke:#000000;stroke-linecap:square;stroke-linejoin:miter;stroke-width:0.8;"/>
   </g>
   <g id="patch_6">
    <path d="M 414.72 307.584 
L 414.72 41.472 
" style="fill:none;stroke:#000000;stroke-linecap:square;stroke-linejoin:miter;stroke-width:0.8;"/>
   </g>
   <g id="patch_7">
    <path d="M 57.6 307.584 
L 414.72 307.584 
" style="fill:none;stroke:#000000;stroke-linecap:square;stroke-linejoin:miter;stroke-width:0.8;"/>
   </g>
   <g id="patch_8">
    <path d="M 57.6 41.472 
L 414.72 41.472 
" style="fill:none;stroke:#000000;stroke-linecap:square;stroke-linejoin:miter;stroke-width:0.8;"/>
   </g>
   <g id="text_18">
    <!-- VIV check for 0.7m/s current -->
    <g transform="translate(150.5625 35.472)scale(0.12 -0.12)">
     <defs>
      <path d="M 28.609375 0 
L 0.78125 72.90625 
L 11.078125 72.90625 
L 34.1875 11.53125 
L 57.328125 72.90625 
L 67.578125 72.90625 
L 39.796875 0 
z
" id="DejaVuSans-86"/>
      <path d="M 9.8125 72.90625 
L 19.671875 72.90625 
L 19.671875 0 
L 9.8125 0 
z
" id="DejaVuSans-73"/>
      <path d="M 9.078125 75.984375 
L 18.109375 75.984375 
L 18.109375 31.109375 
L 44.921875 54.6875 
L 56.390625 54.6875 
L 27.390625 29.109375 
L 57.625 0 
L 45.90625 0 
L 18.109375 26.703125 
L 18.109375 0 
L 9.078125 0 
z
" id="DejaVuSans-107"/>
      <path d="M 41.109375 46.296875 
Q 39.59375 47.171875 37.8125 47.578125 
Q 36.03125 48 33.890625 48 
Q 26.265625 48 22.1875 43.046875 
Q 18.109375 38.09375 18.109375 28.8125 
L 18.109375 0 
L 9.078125 0 
L 9.078125 54.6875 
L 18.109375 54.6875 
L 18.109375 46.1875 
Q 20.953125 51.171875 25.484375 53.578125 
Q 30.03125 56 36.53125 56 
Q 37.453125 56 38.578125 55.875 
Q 39.703125 55.765625 41.0625 55.515625 
z
" id="DejaVuSans-114"/>
      <path d="M 10.6875 12.40625 
L 21 12.40625 
L 21 0 
L 10.6875 0 
z
" id="DejaVuSans-46"/>
      <path d="M 8.203125 72.90625 
L 55.078125 72.90625 
L 55.078125 68.703125 
L 28.609375 0 
L 18.3125 0 
L 43.21875 64.59375 
L 8.203125 64.59375 
z
" id="DejaVuSans-55"/>
      <path d="M 25.390625 72.90625 
L 33.6875 72.90625 
L 8.296875 -9.28125 
L 0 -9.28125 
z
" id="DejaVuSans-47"/>
      <path d="M 44.28125 53.078125 
L 44.28125 44.578125 
Q 40.484375 46.53125 36.375 47.5 
Q 32.28125 48.484375 27.875 48.484375 
Q 21.1875 48.484375 17.84375 46.4375 
Q 14.5 44.390625 14.5 40.28125 
Q 14.5 37.15625 16.890625 35.375 
Q 19.28125 33.59375 26.515625 31.984375 
L 29.59375 31.296875 
Q 39.15625 29.25 43.1875 25.515625 
Q 47.21875 21.78125 47.21875 15.09375 
Q 47.21875 7.46875 41.1875 3.015625 
Q 35.15625 -1.421875 24.609375 -1.421875 
Q 20.21875 -1.421875 15.453125 -0.5625 
Q 10.6875 0.296875 5.421875 2 
L 5.421875 11.28125 
Q 10.40625 8.6875 15.234375 7.390625 
Q 20.0625 6.109375 24.8125 6.109375 
Q 31.15625 6.109375 34.5625 8.28125 
Q 37.984375 10.453125 37.984375 14.40625 
Q 37.984375 18.0625 35.515625 20.015625 
Q 33.0625 21.96875 24.703125 23.78125 
L 21.578125 24.515625 
Q 13.234375 26.265625 9.515625 29.90625 
Q 5.8125 33.546875 5.8125 39.890625 
Q 5.8125 47.609375 11.28125 51.796875 
Q 16.75 56 26.8125 56 
Q 31.78125 56 36.171875 55.265625 
Q 40.578125 54.546875 44.28125 53.078125 
z
" id="DejaVuSans-115"/>
     </defs>
     <use xlink:href="#DejaVuSans-86"/>
     <use x="68.408203" xlink:href="#DejaVuSans-73"/>
     <use x="97.900391" xlink:href="#DejaVuSans-86"/>
     <use x="166.308594" xlink:href="#DejaVuSans-32"/>
     <use x="198.095703" xlink:href="#DejaVuSans-99"/>
     <use x="253.076172" xlink:href="#DejaVuSans-104"/>
     <use x="316.455078" xlink:href="#DejaVuSans-101"/>
     <use x="377.978516" xlink:href="#DejaVuSans-99"/>
     <use x="432.958984" xlink:href="#DejaVuSans-107"/>
     <use x="490.869141" xlink:href="#DejaVuSans-32"/>
     <use x="522.65625" xlink:href="#DejaVuSans-102"/>
     <use x="557.861328" xlink:href="#DejaVuSans-111"/>
     <use x="619.042969" xlink:href="#DejaVuSans-114"/>
     <use x="660.15625" xlink:href="#DejaVuSans-32"/>
     <use x="691.943359" xlink:href="#DejaVuSans-48"/>
     <use x="755.566406" xlink:href="#DejaVuSans-46"/>
     <use x="787.353516" xlink:href="#DejaVuSans-55"/>
     <use x="850.976562" xlink:href="#DejaVuSans-109"/>
     <use x="948.388672" xlink:href="#DejaVuSans-47"/>
     <use x="982.080078" xlink:href="#DejaVuSans-115"/>
     <use x="1034.179688" xlink:href="#DejaVuSans-32"/>
     <use x="1065.966797" xlink:href="#DejaVuSans-99"/>
     <use x="1120.947266" xlink:href="#DejaVuSans-117"/>
     <use x="1184.326172" xlink:href="#DejaVuSans-114"/>
     <use x="1223.689453" xlink:href="#DejaVuSans-114"/>
     <use x="1262.552734" xlink:href="#DejaVuSans-101"/>
     <use x="1324.076172" xlink:href="#DejaVuSans-110"/>
     <use x="1387.455078" xlink:href="#DejaVuSans-116"/>
    </g>
   </g>
   <g id="legend_1">
    <g id="patch_9">
     <path d="M 233.32 152.218875 
L 407.72 152.218875 
Q 409.72 152.218875 409.72 150.218875 
L 409.72 48.472 
Q 409.72 46.472 407.72 46.472 
L 233.32 46.472 
Q 231.32 46.472 231.32 48.472 
L 231.32 150.218875 
Q 231.32 152.218875 233.32 152.218875 
z
" style="fill:#ffffff;opacity:0.8;stroke:#cccccc;stroke-linejoin:miter;"/>
    </g>
    <g id="line2d_38">
     <path d="M 235.32 54.570438 
L 255.32 54.570438 
" style="fill:none;stroke:#1f77b4;stroke-linecap:square;stroke-width:1.5;"/>
    </g>
    <g id="line2d_39"/>
    <g id="text_19">
     <!-- 406$\times$ 22 (D/t=18.5), Ks=2.0 -->
     <g transform="translate(263.32 58.070438)scale(0.1 -0.1)">
      <defs>
       <path d="M 33.015625 40.375 
Q 26.375 40.375 22.484375 35.828125 
Q 18.609375 31.296875 18.609375 23.390625 
Q 18.609375 15.53125 22.484375 10.953125 
Q 26.375 6.390625 33.015625 6.390625 
Q 39.65625 6.390625 43.53125 10.953125 
Q 47.40625 15.53125 47.40625 23.390625 
Q 47.40625 31.296875 43.53125 35.828125 
Q 39.65625 40.375 33.015625 40.375 
z
M 52.59375 71.296875 
L 52.59375 62.3125 
Q 48.875 64.0625 45.09375 64.984375 
Q 41.3125 65.921875 37.59375 65.921875 
Q 27.828125 65.921875 22.671875 59.328125 
Q 17.53125 52.734375 16.796875 39.40625 
Q 19.671875 43.65625 24.015625 45.921875 
Q 28.375 48.1875 33.59375 48.1875 
Q 44.578125 48.1875 50.953125 41.515625 
Q 57.328125 34.859375 57.328125 23.390625 
Q 57.328125 12.15625 50.6875 5.359375 
Q 44.046875 -1.421875 33.015625 -1.421875 
Q 20.359375 -1.421875 13.671875 8.265625 
Q 6.984375 17.96875 6.984375 36.375 
Q 6.984375 53.65625 15.1875 63.9375 
Q 23.390625 74.21875 37.203125 74.21875 
Q 40.921875 74.21875 44.703125 73.484375 
Q 48.484375 72.75 52.59375 71.296875 
z
" id="DejaVuSans-54"/>
       <path d="M 70.125 53.71875 
L 47.796875 31.296875 
L 70.125 8.984375 
L 64.3125 3.078125 
L 41.890625 25.484375 
L 19.484375 3.078125 
L 13.71875 8.984375 
L 35.984375 31.296875 
L 13.71875 53.71875 
L 19.484375 59.625 
L 41.890625 37.203125 
L 64.3125 59.625 
z
" id="DejaVuSans-215"/>
       <path d="M 19.671875 64.796875 
L 19.671875 8.109375 
L 31.59375 8.109375 
Q 46.6875 8.109375 53.6875 14.9375 
Q 60.6875 21.78125 60.6875 36.53125 
Q 60.6875 51.171875 53.6875 57.984375 
Q 46.6875 64.796875 31.59375 64.796875 
z
M 9.8125 72.90625 
L 30.078125 72.90625 
Q 51.265625 72.90625 61.171875 64.09375 
Q 71.09375 55.28125 71.09375 36.53125 
Q 71.09375 17.671875 61.125 8.828125 
Q 51.171875 0 30.078125 0 
L 9.8125 0 
z
" id="DejaVuSans-68"/>
       <path d="M 10.59375 45.40625 
L 73.1875 45.40625 
L 73.1875 37.203125 
L 10.59375 37.203125 
z
M 10.59375 25.484375 
L 73.1875 25.484375 
L 73.1875 17.1875 
L 10.59375 17.1875 
z
" id="DejaVuSans-61"/>
       <path d="M 31.78125 34.625 
Q 24.75 34.625 20.71875 30.859375 
Q 16.703125 27.09375 16.703125 20.515625 
Q 16.703125 13.921875 20.71875 10.15625 
Q 24.75 6.390625 31.78125 6.390625 
Q 38.8125 6.390625 42.859375 10.171875 
Q 46.921875 13.96875 46.921875 20.515625 
Q 46.921875 27.09375 42.890625 30.859375 
Q 38.875 34.625 31.78125 34.625 
z
M 21.921875 38.8125 
Q 15.578125 40.375 12.03125 44.71875 
Q 8.5 49.078125 8.5 55.328125 
Q 8.5 64.0625 14.71875 69.140625 
Q 20.953125 74.21875 31.78125 74.21875 
Q 42.671875 74.21875 48.875 69.140625 
Q 55.078125 64.0625 55.078125 55.328125 
Q 55.078125 49.078125 51.53125 44.71875 
Q 48 40.375 41.703125 38.8125 
Q 48.828125 37.15625 52.796875 32.3125 
Q 56.78125 27.484375 56.78125 20.515625 
Q 56.78125 9.90625 50.3125 4.234375 
Q 43.84375 -1.421875 31.78125 -1.421875 
Q 19.734375 -1.421875 13.25 4.234375 
Q 6.78125 9.90625 6.78125 20.515625 
Q 6.78125 27.484375 10.78125 32.3125 
Q 14.796875 37.15625 21.921875 38.8125 
z
M 18.3125 54.390625 
Q 18.3125 48.734375 21.84375 45.5625 
Q 25.390625 42.390625 31.78125 42.390625 
Q 38.140625 42.390625 41.71875 45.5625 
Q 45.3125 48.734375 45.3125 54.390625 
Q 45.3125 60.0625 41.71875 63.234375 
Q 38.140625 66.40625 31.78125 66.40625 
Q 25.390625 66.40625 21.84375 63.234375 
Q 18.3125 60.0625 18.3125 54.390625 
z
" id="DejaVuSans-56"/>
       <path d="M 9.8125 72.90625 
L 19.671875 72.90625 
L 19.671875 42.09375 
L 52.390625 72.90625 
L 65.09375 72.90625 
L 28.90625 38.921875 
L 67.671875 0 
L 54.6875 0 
L 19.671875 35.109375 
L 19.671875 0 
L 9.8125 0 
z
" id="DejaVuSans-75"/>
      </defs>
      <use transform="translate(0 0.125)" xlink:href="#DejaVuSans-52"/>
      <use transform="translate(63.623047 0.125)" xlink:href="#DejaVuSans-48"/>
      <use transform="translate(127.246094 0.125)" xlink:href="#DejaVuSans-54"/>
      <use transform="translate(190.869141 0.125)" xlink:href="#DejaVuSans-215"/>
      <use transform="translate(274.658203 0.125)" xlink:href="#DejaVuSans-32"/>
      <use transform="translate(306.445312 0.125)" xlink:href="#DejaVuSans-50"/>
      <use transform="translate(370.068359 0.125)" xlink:href="#DejaVuSans-50"/>
      <use transform="translate(433.691406 0.125)" xlink:href="#DejaVuSans-32"/>
      <use transform="translate(465.478516 0.125)" xlink:href="#DejaVuSans-40"/>
      <use transform="translate(504.492188 0.125)" xlink:href="#DejaVuSans-68"/>
      <use transform="translate(581.494141 0.125)" xlink:href="#DejaVuSans-47"/>
      <use transform="translate(615.185547 0.125)" xlink:href="#DejaVuSans-116"/>
      <use transform="translate(654.394531 0.125)" xlink:href="#DejaVuSans-61"/>
      <use transform="translate(738.183594 0.125)" xlink:href="#DejaVuSans-49"/>
      <use transform="translate(801.806641 0.125)" xlink:href="#DejaVuSans-56"/>
      <use transform="translate(865.429688 0.125)" xlink:href="#DejaVuSans-46"/>
      <use transform="translate(897.216797 0.125)" xlink:href="#DejaVuSans-53"/>
      <use transform="translate(960.839844 0.125)" xlink:href="#DejaVuSans-41"/>
      <use transform="translate(999.853516 0.125)" xlink:href="#DejaVuSans-44"/>
      <use transform="translate(1031.640625 0.125)" xlink:href="#DejaVuSans-32"/>
      <use transform="translate(1063.427734 0.125)" xlink:href="#DejaVuSans-75"/>
      <use transform="translate(1129.003906 0.125)" xlink:href="#DejaVuSans-115"/>
      <use transform="translate(1181.103516 0.125)" xlink:href="#DejaVuSans-61"/>
      <use transform="translate(1264.892578 0.125)" xlink:href="#DejaVuSans-50"/>
      <use transform="translate(1328.515625 0.125)" xlink:href="#DejaVuSans-46"/>
      <use transform="translate(1360.302734 0.125)" xlink:href="#DejaVuSans-48"/>
     </g>
    </g>
    <g id="line2d_40">
     <path d="M 235.32 69.248563 
L 255.32 69.248563 
" style="fill:none;stroke:#ff7f0e;stroke-linecap:square;stroke-width:1.5;"/>
    </g>
    <g id="line2d_41"/>
    <g id="text_20">
     <!-- 457$\times$ 22 (D/t=20.8), Ks=1.9 -->
     <g transform="translate(263.32 72.748563)scale(0.1 -0.1)">
      <defs>
       <path d="M 10.984375 1.515625 
L 10.984375 10.5 
Q 14.703125 8.734375 18.5 7.8125 
Q 22.3125 6.890625 25.984375 6.890625 
Q 35.75 6.890625 40.890625 13.453125 
Q 46.046875 20.015625 46.78125 33.40625 
Q 43.953125 29.203125 39.59375 26.953125 
Q 35.25 24.703125 29.984375 24.703125 
Q 19.046875 24.703125 12.671875 31.3125 
Q 6.296875 37.9375 6.296875 49.421875 
Q 6.296875 60.640625 12.9375 67.421875 
Q 19.578125 74.21875 30.609375 74.21875 
Q 43.265625 74.21875 49.921875 64.515625 
Q 56.59375 54.828125 56.59375 36.375 
Q 56.59375 19.140625 48.40625 8.859375 
Q 40.234375 -1.421875 26.421875 -1.421875 
Q 22.703125 -1.421875 18.890625 -0.6875 
Q 15.09375 0.046875 10.984375 1.515625 
z
M 30.609375 32.421875 
Q 37.25 32.421875 41.125 36.953125 
Q 45.015625 41.5 45.015625 49.421875 
Q 45.015625 57.28125 41.125 61.84375 
Q 37.25 66.40625 30.609375 66.40625 
Q 23.96875 66.40625 20.09375 61.84375 
Q 16.21875 57.28125 16.21875 49.421875 
Q 16.21875 41.5 20.09375 36.953125 
Q 23.96875 32.421875 30.609375 32.421875 
z
" id="DejaVuSans-57"/>
      </defs>
      <use transform="translate(0 0.125)" xlink:href="#DejaVuSans-52"/>
      <use transform="translate(63.623047 0.125)" xlink:href="#DejaVuSans-53"/>
      <use transform="translate(119.996094 0.125)" xlink:href="#DejaVuSans-55"/>
      <use transform="translate(183.619141 0.125)" xlink:href="#DejaVuSans-215"/>
      <use transform="translate(267.408203 0.125)" xlink:href="#DejaVuSans-32"/>
      <use transform="translate(299.195312 0.125)" xlink:href="#DejaVuSans-50"/>
      <use transform="translate(362.818359 0.125)" xlink:href="#DejaVuSans-50"/>
      <use transform="translate(426.441406 0.125)" xlink:href="#DejaVuSans-32"/>
      <use transform="translate(458.228516 0.125)" xlink:href="#DejaVuSans-40"/>
      <use transform="translate(497.242188 0.125)" xlink:href="#DejaVuSans-68"/>
      <use transform="translate(574.244141 0.125)" xlink:href="#DejaVuSans-47"/>
      <use transform="translate(607.935547 0.125)" xlink:href="#DejaVuSans-116"/>
      <use transform="translate(647.144531 0.125)" xlink:href="#DejaVuSans-61"/>
      <use transform="translate(730.933594 0.125)" xlink:href="#DejaVuSans-50"/>
      <use transform="translate(794.556641 0.125)" xlink:href="#DejaVuSans-48"/>
      <use transform="translate(858.179688 0.125)" xlink:href="#DejaVuSans-46"/>
      <use transform="translate(887.341797 0.125)" xlink:href="#DejaVuSans-56"/>
      <use transform="translate(950.964844 0.125)" xlink:href="#DejaVuSans-41"/>
      <use transform="translate(989.978516 0.125)" xlink:href="#DejaVuSans-44"/>
      <use transform="translate(1021.765625 0.125)" xlink:href="#DejaVuSans-32"/>
      <use transform="translate(1053.552734 0.125)" xlink:href="#DejaVuSans-75"/>
      <use transform="translate(1119.128906 0.125)" xlink:href="#DejaVuSans-115"/>
      <use transform="translate(1171.228516 0.125)" xlink:href="#DejaVuSans-61"/>
      <use transform="translate(1255.017578 0.125)" xlink:href="#DejaVuSans-49"/>
      <use transform="translate(1318.640625 0.125)" xlink:href="#DejaVuSans-46"/>
      <use transform="translate(1350.427734 0.125)" xlink:href="#DejaVuSans-57"/>
     </g>
    </g>
    <g id="line2d_42">
     <path d="M 235.32 83.926688 
L 255.32 83.926688 
" style="fill:none;stroke:#2ca02c;stroke-linecap:square;stroke-width:1.5;"/>
    </g>
    <g id="line2d_43"/>
    <g id="text_21">
     <!-- 508$\times$ 22 (D/t=23.1), Ks=1.8 -->
     <g transform="translate(263.32 87.426688)scale(0.1 -0.1)">
      <use transform="translate(0 0.125)" xlink:href="#DejaVuSans-53"/>
      <use transform="translate(63.623047 0.125)" xlink:href="#DejaVuSans-48"/>
      <use transform="translate(127.246094 0.125)" xlink:href="#DejaVuSans-56"/>
      <use transform="translate(190.869141 0.125)" xlink:href="#DejaVuSans-215"/>
      <use transform="translate(274.658203 0.125)" xlink:href="#DejaVuSans-32"/>
      <use transform="translate(306.445312 0.125)" xlink:href="#DejaVuSans-50"/>
      <use transform="translate(370.068359 0.125)" xlink:href="#DejaVuSans-50"/>
      <use transform="translate(433.691406 0.125)" xlink:href="#DejaVuSans-32"/>
      <use transform="translate(465.478516 0.125)" xlink:href="#DejaVuSans-40"/>
      <use transform="translate(504.492188 0.125)" xlink:href="#DejaVuSans-68"/>
      <use transform="translate(581.494141 0.125)" xlink:href="#DejaVuSans-47"/>
      <use transform="translate(615.185547 0.125)" xlink:href="#DejaVuSans-116"/>
      <use transform="translate(654.394531 0.125)" xlink:href="#DejaVuSans-61"/>
      <use transform="translate(738.183594 0.125)" xlink:href="#DejaVuSans-50"/>
      <use transform="translate(801.806641 0.125)" xlink:href="#DejaVuSans-51"/>
      <use transform="translate(865.429688 0.125)" xlink:href="#DejaVuSans-46"/>
      <use transform="translate(897.216797 0.125)" xlink:href="#DejaVuSans-49"/>
      <use transform="translate(960.839844 0.125)" xlink:href="#DejaVuSans-41"/>
      <use transform="translate(999.853516 0.125)" xlink:href="#DejaVuSans-44"/>
      <use transform="translate(1031.640625 0.125)" xlink:href="#DejaVuSans-32"/>
      <use transform="translate(1063.427734 0.125)" xlink:href="#DejaVuSans-75"/>
      <use transform="translate(1129.003906 0.125)" xlink:href="#DejaVuSans-115"/>
      <use transform="translate(1181.103516 0.125)" xlink:href="#DejaVuSans-61"/>
      <use transform="translate(1264.892578 0.125)" xlink:href="#DejaVuSans-49"/>
      <use transform="translate(1328.515625 0.125)" xlink:href="#DejaVuSans-46"/>
      <use transform="translate(1357.677734 0.125)" xlink:href="#DejaVuSans-56"/>
     </g>
    </g>
    <g id="line2d_44">
     <path d="M 235.32 98.604813 
L 255.32 98.604813 
" style="fill:none;stroke:#d62728;stroke-linecap:square;stroke-width:1.5;"/>
    </g>
    <g id="line2d_45"/>
    <g id="text_22">
     <!-- 559$\times$ 22 (D/t=25.4), Ks=1.8 -->
     <g transform="translate(263.32 102.104813)scale(0.1 -0.1)">
      <use transform="translate(0 0.125)" xlink:href="#DejaVuSans-53"/>
      <use transform="translate(63.623047 0.125)" xlink:href="#DejaVuSans-53"/>
      <use transform="translate(121.746094 0.125)" xlink:href="#DejaVuSans-57"/>
      <use transform="translate(185.369141 0.125)" xlink:href="#DejaVuSans-215"/>
      <use transform="translate(269.158203 0.125)" xlink:href="#DejaVuSans-32"/>
      <use transform="translate(300.945312 0.125)" xlink:href="#DejaVuSans-50"/>
      <use transform="translate(364.568359 0.125)" xlink:href="#DejaVuSans-50"/>
      <use transform="translate(428.191406 0.125)" xlink:href="#DejaVuSans-32"/>
      <use transform="translate(459.978516 0.125)" xlink:href="#DejaVuSans-40"/>
      <use transform="translate(498.992188 0.125)" xlink:href="#DejaVuSans-68"/>
      <use transform="translate(575.994141 0.125)" xlink:href="#DejaVuSans-47"/>
      <use transform="translate(609.685547 0.125)" xlink:href="#DejaVuSans-116"/>
      <use transform="translate(648.894531 0.125)" xlink:href="#DejaVuSans-61"/>
      <use transform="translate(732.683594 0.125)" xlink:href="#DejaVuSans-50"/>
      <use transform="translate(796.306641 0.125)" xlink:href="#DejaVuSans-53"/>
      <use transform="translate(859.929688 0.125)" xlink:href="#DejaVuSans-46"/>
      <use transform="translate(891.716797 0.125)" xlink:href="#DejaVuSans-52"/>
      <use transform="translate(955.339844 0.125)" xlink:href="#DejaVuSans-41"/>
      <use transform="translate(994.353516 0.125)" xlink:href="#DejaVuSans-44"/>
      <use transform="translate(1026.140625 0.125)" xlink:href="#DejaVuSans-32"/>
      <use transform="translate(1057.927734 0.125)" xlink:href="#DejaVuSans-75"/>
      <use transform="translate(1123.503906 0.125)" xlink:href="#DejaVuSans-115"/>
      <use transform="translate(1175.603516 0.125)" xlink:href="#DejaVuSans-61"/>
      <use transform="translate(1259.392578 0.125)" xlink:href="#DejaVuSans-49"/>
      <use transform="translate(1323.015625 0.125)" xlink:href="#DejaVuSans-46"/>
      <use transform="translate(1352.177734 0.125)" xlink:href="#DejaVuSans-56"/>
     </g>
    </g>
    <g id="line2d_46">
     <path d="M 235.32 113.282938 
L 255.32 113.282938 
" style="fill:none;stroke:#9467bd;stroke-linecap:square;stroke-width:1.5;"/>
    </g>
    <g id="line2d_47"/>
    <g id="text_23">
     <!-- 610$\times$ 22 (D/t=27.7), Ks=1.7 -->
     <g transform="translate(263.32 116.782938)scale(0.1 -0.1)">
      <use transform="translate(0 0.125)" xlink:href="#DejaVuSans-54"/>
      <use transform="translate(63.623047 0.125)" xlink:href="#DejaVuSans-49"/>
      <use transform="translate(127.246094 0.125)" xlink:href="#DejaVuSans-48"/>
      <use transform="translate(190.869141 0.125)" xlink:href="#DejaVuSans-215"/>
      <use transform="translate(274.658203 0.125)" xlink:href="#DejaVuSans-32"/>
      <use transform="translate(306.445312 0.125)" xlink:href="#DejaVuSans-50"/>
      <use transform="translate(370.068359 0.125)" xlink:href="#DejaVuSans-50"/>
      <use transform="translate(433.691406 0.125)" xlink:href="#DejaVuSans-32"/>
      <use transform="translate(465.478516 0.125)" xlink:href="#DejaVuSans-40"/>
      <use transform="translate(504.492188 0.125)" xlink:href="#DejaVuSans-68"/>
      <use transform="translate(581.494141 0.125)" xlink:href="#DejaVuSans-47"/>
      <use transform="translate(615.185547 0.125)" xlink:href="#DejaVuSans-116"/>
      <use transform="translate(654.394531 0.125)" xlink:href="#DejaVuSans-61"/>
      <use transform="translate(738.183594 0.125)" xlink:href="#DejaVuSans-50"/>
      <use transform="translate(801.806641 0.125)" xlink:href="#DejaVuSans-55"/>
      <use transform="translate(865.429688 0.125)" xlink:href="#DejaVuSans-46"/>
      <use transform="translate(889.466797 0.125)" xlink:href="#DejaVuSans-55"/>
      <use transform="translate(953.089844 0.125)" xlink:href="#DejaVuSans-41"/>
      <use transform="translate(992.103516 0.125)" xlink:href="#DejaVuSans-44"/>
      <use transform="translate(1023.890625 0.125)" xlink:href="#DejaVuSans-32"/>
      <use transform="translate(1055.677734 0.125)" xlink:href="#DejaVuSans-75"/>
      <use transform="translate(1121.253906 0.125)" xlink:href="#DejaVuSans-115"/>
      <use transform="translate(1173.353516 0.125)" xlink:href="#DejaVuSans-61"/>
      <use transform="translate(1257.142578 0.125)" xlink:href="#DejaVuSans-49"/>
      <use transform="translate(1320.765625 0.125)" xlink:href="#DejaVuSans-46"/>
      <use transform="translate(1344.802734 0.125)" xlink:href="#DejaVuSans-55"/>
     </g>
    </g>
    <g id="line2d_48">
     <path d="M 235.32 127.961063 
L 255.32 127.961063 
" style="fill:none;stroke:#8c564b;stroke-linecap:square;stroke-width:1.5;"/>
    </g>
    <g id="line2d_49"/>
    <g id="text_24">
     <!-- 660$\times$ 22 (D/t=30.0), Ks=1.7 -->
     <g transform="translate(263.32 131.461063)scale(0.1 -0.1)">
      <use transform="translate(0 0.125)" xlink:href="#DejaVuSans-54"/>
      <use transform="translate(63.623047 0.125)" xlink:href="#DejaVuSans-54"/>
      <use transform="translate(127.246094 0.125)" xlink:href="#DejaVuSans-48"/>
      <use transform="translate(190.869141 0.125)" xlink:href="#DejaVuSans-215"/>
      <use transform="translate(274.658203 0.125)" xlink:href="#DejaVuSans-32"/>
      <use transform="translate(306.445312 0.125)" xlink:href="#DejaVuSans-50"/>
      <use transform="translate(370.068359 0.125)" xlink:href="#DejaVuSans-50"/>
      <use transform="translate(433.691406 0.125)" xlink:href="#DejaVuSans-32"/>
      <use transform="translate(465.478516 0.125)" xlink:href="#DejaVuSans-40"/>
      <use transform="translate(504.492188 0.125)" xlink:href="#DejaVuSans-68"/>
      <use transform="translate(581.494141 0.125)" xlink:href="#DejaVuSans-47"/>
      <use transform="translate(615.185547 0.125)" xlink:href="#DejaVuSans-116"/>
      <use transform="translate(654.394531 0.125)" xlink:href="#DejaVuSans-61"/>
      <use transform="translate(738.183594 0.125)" xlink:href="#DejaVuSans-51"/>
      <use transform="translate(801.806641 0.125)" xlink:href="#DejaVuSans-48"/>
      <use transform="translate(865.429688 0.125)" xlink:href="#DejaVuSans-46"/>
      <use transform="translate(897.216797 0.125)" xlink:href="#DejaVuSans-48"/>
      <use transform="translate(960.839844 0.125)" xlink:href="#DejaVuSans-41"/>
      <use transform="translate(999.853516 0.125)" xlink:href="#DejaVuSans-44"/>
      <use transform="translate(1031.640625 0.125)" xlink:href="#DejaVuSans-32"/>
      <use transform="translate(1063.427734 0.125)" xlink:href="#DejaVuSans-75"/>
      <use transform="translate(1129.003906 0.125)" xlink:href="#DejaVuSans-115"/>
      <use transform="translate(1181.103516 0.125)" xlink:href="#DejaVuSans-61"/>
      <use transform="translate(1264.892578 0.125)" xlink:href="#DejaVuSans-49"/>
      <use transform="translate(1328.515625 0.125)" xlink:href="#DejaVuSans-46"/>
      <use transform="translate(1352.552734 0.125)" xlink:href="#DejaVuSans-55"/>
     </g>
    </g>
    <g id="line2d_50">
     <path d="M 235.32 142.639188 
L 255.32 142.639188 
" style="fill:none;stroke:#e377c2;stroke-linecap:square;stroke-width:1.5;"/>
    </g>
    <g id="line2d_51"/>
    <g id="text_25">
     <!-- 762$\times$ 22 (D/t=34.6), Ks=1.7 -->
     <g transform="translate(263.32 146.139188)scale(0.1 -0.1)">
      <use transform="translate(0 0.125)" xlink:href="#DejaVuSans-55"/>
      <use transform="translate(63.623047 0.125)" xlink:href="#DejaVuSans-54"/>
      <use transform="translate(127.246094 0.125)" xlink:href="#DejaVuSans-50"/>
      <use transform="translate(190.869141 0.125)" xlink:href="#DejaVuSans-215"/>
      <use transform="translate(274.658203 0.125)" xlink:href="#DejaVuSans-32"/>
      <use transform="translate(306.445312 0.125)" xlink:href="#DejaVuSans-50"/>
      <use transform="translate(370.068359 0.125)" xlink:href="#DejaVuSans-50"/>
      <use transform="translate(433.691406 0.125)" xlink:href="#DejaVuSans-32"/>
      <use transform="translate(465.478516 0.125)" xlink:href="#DejaVuSans-40"/>
      <use transform="translate(504.492188 0.125)" xlink:href="#DejaVuSans-68"/>
      <use transform="translate(581.494141 0.125)" xlink:href="#DejaVuSans-47"/>
      <use transform="translate(615.185547 0.125)" xlink:href="#DejaVuSans-116"/>
      <use transform="translate(654.394531 0.125)" xlink:href="#DejaVuSans-61"/>
      <use transform="translate(738.183594 0.125)" xlink:href="#DejaVuSans-51"/>
      <use transform="translate(801.806641 0.125)" xlink:href="#DejaVuSans-52"/>
      <use transform="translate(865.429688 0.125)" xlink:href="#DejaVuSans-46"/>
      <use transform="translate(897.216797 0.125)" xlink:href="#DejaVuSans-54"/>
      <use transform="translate(960.839844 0.125)" xlink:href="#DejaVuSans-41"/>
      <use transform="translate(999.853516 0.125)" xlink:href="#DejaVuSans-44"/>
      <use transform="translate(1031.640625 0.125)" xlink:href="#DejaVuSans-32"/>
      <use transform="translate(1063.427734 0.125)" xlink:href="#DejaVuSans-75"/>
      <use transform="translate(1129.003906 0.125)" xlink:href="#DejaVuSans-115"/>
      <use transform="translate(1181.103516 0.125)" xlink:href="#DejaVuSans-61"/>
      <use transform="translate(1264.892578 0.125)" xlink:href="#DejaVuSans-49"/>
      <use transform="translate(1328.515625 0.125)" xlink:href="#DejaVuSans-46"/>
      <use transform="translate(1352.552734 0.125)" xlink:href="#DejaVuSans-55"/>
     </g>
    </g>
   </g>
  </g>
 </g>
 <defs>
  <clipPath id="p32eea11f36">
   <rect height="266.112" width="357.12" x="57.6" y="41.472"/>
  </clipPath>
 </defs>
</svg>
